<svg width="24" height="24" viewBox="0 0 24 24" fill="none" xmlns="http://www.w3.org/2000/svg">
<g clip-path="url(#clip0_559_29735)">
<path d="M11.6999 13.3148C15.376 13.3148 18.3561 10.3348 18.3561 6.65864C18.3561 2.98252 15.376 0.00244141 11.6999 0.00244141C8.02378 0.00244141 5.0437 2.98252 5.0437 6.65864C5.0437 10.3348 8.02378 13.3148 11.6999 13.3148Z" fill="url(#paint0_linear_559_29735)"/>
<path d="M5.0437 6.65868C5.0437 10.3348 8.02376 13.3149 11.6999 13.3149C15.376 13.3149 18.3561 10.3348 18.3561 6.65868C18.3561 5.86248 18.2159 5.09923 17.9595 4.39161H5.44029C5.18401 5.09923 5.0437 5.86248 5.0437 6.65868Z" fill="url(#paint1_linear_559_29735)"/>
<path d="M6.99334 11.3651C9.59275 13.9645 13.8072 13.9645 16.4067 11.3651C19.0061 8.7657 19.0061 4.5512 16.4067 1.95179C15.8436 1.38879 15.2048 0.948274 14.5232 0.629193L5.67065 9.48162C5.98982 10.1633 6.43033 10.8022 6.99334 11.3651Z" fill="url(#paint2_linear_559_29735)"/>
<path d="M20.4178 24.0024H2.98189C2.43962 24.0024 2 23.5628 2 23.0206V21.9909C2 17.8851 5.32842 14.5567 9.43425 14.5567H13.9655C18.0713 14.5567 21.3997 17.8851 21.3997 21.9909V23.0206C21.3997 23.5628 20.9601 24.0024 20.4178 24.0024Z" fill="url(#paint3_linear_559_29735)"/>
<path d="M2 21.991V23.0207C2 23.5629 2.43962 24.0026 2.98189 24.0026H20.4178C20.9601 24.0026 21.3997 23.5629 21.3997 23.0207V21.991C21.3997 20.0287 20.639 18.2441 19.3968 16.9154H4.00289C2.76073 18.2441 2 20.0287 2 21.991Z" fill="url(#paint4_linear_559_29735)"/>
<path d="M13.9655 14.5567H10.9084V24.0025H20.4179C20.9602 24.0025 21.3998 23.5629 21.3998 23.0206V21.991C21.3998 17.8851 18.0714 14.5567 13.9655 14.5567Z" fill="url(#paint5_linear_559_29735)"/>
</g>
<defs>
<linearGradient id="paint0_linear_559_29735" x1="9.51538" y1="4.47412" x2="14.4651" y2="9.42381" gradientUnits="userSpaceOnUse">
<stop stop-color="#FFDFCF"/>
<stop offset="1" stop-color="#FFA78F"/>
</linearGradient>
<linearGradient id="paint1_linear_559_29735" x1="11.7" y1="7.06194" x2="11.7" y2="13.2949" gradientUnits="userSpaceOnUse">
<stop stop-color="#F89580" stop-opacity="0"/>
<stop offset="0.2622" stop-color="#F3917C" stop-opacity="0.263"/>
<stop offset="0.5812" stop-color="#E48671" stop-opacity="0.583"/>
<stop offset="0.9283" stop-color="#CB755E" stop-opacity="0.931"/>
<stop offset="0.9972" stop-color="#C5715A"/>
</linearGradient>
<linearGradient id="paint2_linear_559_29735" x1="12.2811" y1="7.2396" x2="16.4703" y2="11.4288" gradientUnits="userSpaceOnUse">
<stop stop-color="#F89580" stop-opacity="0"/>
<stop offset="0.2622" stop-color="#F3917C" stop-opacity="0.263"/>
<stop offset="0.5812" stop-color="#E48671" stop-opacity="0.583"/>
<stop offset="0.9283" stop-color="#CB755E" stop-opacity="0.931"/>
<stop offset="0.9972" stop-color="#C5715A"/>
</linearGradient>
<linearGradient id="paint3_linear_559_29735" x1="9.82361" y1="16.0517" x2="12.7426" y2="25.3163" gradientUnits="userSpaceOnUse">
<stop stop-color="#BBF49B"/>
<stop offset="1" stop-color="#0BB494"/>
</linearGradient>
<linearGradient id="paint4_linear_559_29735" x1="11.6999" y1="19.9694" x2="11.6999" y2="23.7851" gradientUnits="userSpaceOnUse">
<stop stop-color="#00A887" stop-opacity="0"/>
<stop offset="0.3106" stop-color="#00A387" stop-opacity="0.311"/>
<stop offset="0.6639" stop-color="#009589" stop-opacity="0.664"/>
<stop offset="1" stop-color="#00818B"/>
</linearGradient>
<linearGradient id="paint5_linear_559_29735" x1="13.8483" y1="19.429" x2="21.1246" y2="18.8367" gradientUnits="userSpaceOnUse">
<stop stop-color="#00A887" stop-opacity="0"/>
<stop offset="0.3106" stop-color="#00A387" stop-opacity="0.311"/>
<stop offset="0.6639" stop-color="#009589" stop-opacity="0.664"/>
<stop offset="1" stop-color="#00818B"/>
</linearGradient>
<clipPath id="clip0_559_29735">
<rect width="24" height="24" fill="white" transform="translate(0 0.00244141)"/>
</clipPath>
</defs>
</svg>
