<svg width="48" height="58" viewBox="0 0 48 58" fill="none" xmlns="http://www.w3.org/2000/svg">
<rect x="0.5" y="0.5" width="47" height="47" rx="23.5" stroke="#FF0000"/>
<path d="M35.0476 30.4175L16.795 12.1649C16.667 12.0369 16.5066 11.9731 16.3146 11.9729C16.1223 11.9729 15.9624 12.0369 15.8342 12.165L12.9521 15.0472C12.824 15.1753 12.76 15.3356 12.76 15.5276C12.7602 15.7195 12.824 15.8797 12.952 16.0078L31.2047 34.2604C31.3326 34.3884 31.4931 34.4527 31.6848 34.4524C31.8771 34.4527 32.0373 34.3887 32.1654 34.2606L35.0476 31.3784C35.1757 31.2503 35.2397 31.0904 35.2394 30.8978C35.2399 30.7059 35.1756 30.5454 35.0476 30.4175Z" fill="#FF0000"/>
<path d="M16.7952 34.2612L35.0478 16.0086C35.1757 15.8807 35.2395 15.7202 35.2397 15.5282C35.2397 15.3359 35.1757 15.176 35.0476 15.0479L32.1654 12.1657C32.0373 12.0376 31.877 11.9736 31.6851 11.9736C31.4932 11.9738 31.3329 12.0376 31.2048 12.1656L12.9522 30.4183C12.8243 30.5462 12.7599 30.7068 12.7602 30.8984C12.7599 31.0907 12.824 31.2509 12.9521 31.3791L15.8343 34.2612C15.9624 34.3893 16.1223 34.4534 16.3149 34.4531C16.5067 34.4535 16.6672 34.3892 16.7952 34.2612Z" fill="#FF0000"/>
<ellipse cx="24" cy="55" rx="16.5" ry="3" fill="#E9EDF1"/>
</svg>
