<svg width="48" height="58" viewBox="0 0 48 58" fill="none" xmlns="http://www.w3.org/2000/svg">
<rect x="0.5" y="0.5" width="47" height="47" rx="23.5" stroke="#425262"/>
<path d="M25.9881 29.999H21.488C21.2882 29.999 21.1131 30.0745 20.9631 30.2242C20.813 30.3743 20.738 30.5492 20.738 30.7492V35.2495C20.738 35.4496 20.8132 35.6246 20.9631 35.7745C21.1131 35.9242 21.288 35.9995 21.488 35.9995H25.9881C26.1879 35.9995 26.3634 35.9244 26.5128 35.7745C26.6632 35.6246 26.7383 35.4496 26.7383 35.2495V30.7492C26.7383 30.5492 26.6634 30.3743 26.5128 30.2242C26.3634 30.0741 26.1879 29.999 25.9881 29.999Z" fill="#425262"/>
<path d="M31.8949 16.5283C31.3822 15.584 30.7199 14.7875 29.9072 14.1374C29.095 13.4874 28.1819 12.9684 27.1696 12.5811C26.1571 12.1939 25.1509 12 24.1507 12C20.3508 12 17.4509 13.6625 15.4507 16.9877C15.3508 17.1501 15.3163 17.325 15.3475 17.5126C15.3789 17.6999 15.4758 17.8562 15.6383 17.9812L18.7134 20.3252C18.8759 20.425 19.0322 20.475 19.1822 20.475C19.4073 20.475 19.6009 20.3748 19.7636 20.1748C20.6635 19.05 21.3323 18.3312 21.7698 18.0186C22.3074 17.6562 22.9822 17.475 23.7947 17.475C24.5572 17.475 25.2289 17.6751 25.8104 18.0748C26.3916 18.4749 26.6819 18.9374 26.6819 19.4624C26.6819 20.0496 26.526 20.5249 26.2134 20.8874C25.9009 21.2498 25.3758 21.5996 24.6381 21.9372C23.6634 22.3747 22.7692 23.0529 21.9571 23.9717C21.1444 24.8905 20.7383 25.8687 20.7383 26.9061V27.7498C20.7383 27.9876 20.8036 28.2218 20.9351 28.4531C21.0664 28.6845 21.2257 28.8 21.4133 28.8H25.9134C26.1134 28.8 26.2882 28.7034 26.4384 28.509C26.588 28.3158 26.6634 28.1126 26.6634 27.9004C26.6634 27.588 26.8352 27.1688 27.1787 26.644C27.5225 26.119 27.9505 25.7124 28.4634 25.4248C28.9506 25.1499 29.3316 24.9283 29.6069 24.7593C29.8824 24.5908 30.2415 24.3183 30.6854 23.9436C31.1291 23.5685 31.4729 23.1965 31.7164 22.8279C31.9602 22.4592 32.1791 21.981 32.3728 21.3933C32.567 20.8059 32.6636 20.1746 32.6636 19.4996C32.6635 18.4621 32.4071 17.4716 31.8949 16.5283Z" fill="#425262"/>
<ellipse cx="24" cy="55" rx="16.5" ry="3" fill="#E9EDF1"/>
</svg>
