<svg width="48" height="58" viewBox="0 0 48 58" fill="none" xmlns="http://www.w3.org/2000/svg">
<rect x="0.5" y="0.5" width="47" height="47" rx="23.5" stroke="#3989FF"/>
<path d="M26.9998 31.4424H20.9999C20.7335 31.4424 20.5001 31.5123 20.3001 31.6509C20.0999 31.7899 20 31.9518 20 32.137V36.304C20 36.4892 20.1003 36.6513 20.3001 36.7901C20.5001 36.9287 20.7332 36.9984 20.9999 36.9984H26.9998C27.2661 36.9984 27.5002 36.9288 27.6994 36.7901C27.8999 36.6513 28 36.4892 28 36.304V32.137C28 31.9518 27.9002 31.7899 27.6994 31.6509C27.5002 31.5119 27.2661 31.4424 26.9998 31.4424Z" fill="#3989FF"/>
<path d="M26.9998 10H20.9999C20.7335 10 20.5001 10.0699 20.3001 10.2085C20.0999 10.3475 20 10.5094 20 10.6946V27.8246C20 28.0098 20.1003 28.1719 20.3001 28.3107C20.5001 28.4493 20.7332 28.519 20.9999 28.519H26.9998C27.2661 28.519 27.5002 28.4494 27.6994 28.3107C27.8999 28.1719 28 28.0098 28 27.8246V10.6946C28 10.5094 27.9002 10.3475 27.6994 10.2085C27.5002 10.0695 27.2661 10 26.9998 10Z" fill="#3989FF"/>
<ellipse cx="24" cy="55" rx="16.5" ry="3" fill="#E9EDF1"/>
</svg>
