<svg width="24" height="24" viewBox="0 0 24 24" fill="none" xmlns="http://www.w3.org/2000/svg">
<g clip-path="url(#clip0_610_22471)">
<path d="M13.4062 0.752441H2.10937C0.942139 0.752441 0 1.69458 0 2.86181V7.08055C0 8.24769 0.942139 9.18993 2.10937 9.18993H2.85937V11.2993C2.85937 11.5805 3.02812 11.8337 3.29531 11.9461C3.37968 11.9884 3.47812 12.0024 3.56249 12.0024C3.74531 12.0024 3.92812 11.9321 4.05463 11.7914L6.6703 9.18993H9.18748C9.24369 9.18993 9.30003 9.18993 9.35623 9.16175L14.9812 7.75551C15.2906 7.68519 15.5156 7.40394 15.5156 7.08055V2.86181C15.5156 1.69458 14.5735 0.752441 13.4062 0.752441Z" fill="#73BCFF"/>
<path d="M15.5156 2.86181V7.08055C15.5156 7.40394 15.2907 7.68524 14.9812 7.75551L9.35625 9.16175C9.30004 9.18993 9.2437 9.18993 9.1875 9.18993H7.78125V0.752441H13.4062C14.5735 0.752441 15.5156 1.69458 15.5156 2.86181Z" fill="#3AAAFF"/>
<path d="M21.8906 6.37744H10.5937C9.42651 6.37744 8.48438 7.31958 8.48438 8.48681V12.7056C8.48438 13.0289 8.70933 13.3102 9.01875 13.3805C9.14526 13.4227 14.6859 14.8149 14.8125 14.8149H17.7656L19.9031 17.3743C20.0859 17.5992 20.3952 17.6836 20.6765 17.5852C20.9578 17.4867 21.1406 17.2196 21.1406 16.9243V14.8149H21.8906C23.0579 14.8149 24 13.8727 24 12.7056V8.48681C24 7.31958 23.0578 6.37744 21.8906 6.37744Z" fill="#FF6C6C"/>
<path d="M24 8.48681V12.7056C24 13.8727 23.0578 14.8149 21.8906 14.8149H21.1406V16.9243C21.1406 17.2196 20.9578 17.4867 20.6765 17.5852C20.3952 17.6836 20.0859 17.5992 19.9031 17.3743L17.7655 14.8149H16.2188V6.37744H21.8906C23.0578 6.37744 24 7.31958 24 8.48681Z" fill="#FF4949"/>
<path d="M13.4062 12.0024H2.10937C0.942139 12.0024 0 12.9446 0 14.1118V18.3306C0 19.4977 0.942139 20.4399 2.10937 20.4399H2.85937V22.5493C2.85937 22.8305 3.02812 23.0837 3.29531 23.1961C3.54843 23.3087 3.85785 23.2524 4.05463 23.0414L6.6703 20.4399H13.4062C14.5735 20.4399 15.5156 19.4977 15.5156 18.3306V14.1118C15.5156 12.9446 14.5735 12.0024 13.4062 12.0024Z" fill="#FFD400"/>
<path d="M15.5156 14.1118V18.3306C15.5156 19.4977 14.5735 20.4399 13.4062 20.4399H7.78125V12.0024H13.4062C14.5735 12.0024 15.5156 12.9446 15.5156 14.1118Z" fill="#FDBF00"/>
<path d="M19.0312 11.2993C19.4196 11.2993 19.7344 10.9845 19.7344 10.5962C19.7344 10.2079 19.4196 9.89307 19.0312 9.89307C18.6429 9.89307 18.3281 10.2079 18.3281 10.5962C18.3281 10.9845 18.6429 11.2993 19.0312 11.2993Z" fill="#384949"/>
<path d="M16.9219 10.5962C16.9219 10.9899 16.6125 11.2993 16.2187 11.2993C15.825 11.2993 15.5156 10.9899 15.5156 10.5962C15.5156 10.2024 15.825 9.89307 16.2187 9.89307C16.6125 9.89307 16.9219 10.2024 16.9219 10.5962Z" fill="#3E5959"/>
<path d="M13.4062 11.2995C13.7946 11.2995 14.1094 10.9847 14.1094 10.5964C14.1094 10.2081 13.7946 9.8933 13.4062 9.8933C13.0179 9.8933 12.7031 10.2081 12.7031 10.5964C12.7031 10.9847 13.0179 11.2995 13.4062 11.2995Z" fill="#3E5959"/>
<path d="M10.5937 4.97119C10.9821 4.97119 11.2969 4.65639 11.2969 4.26807C11.2969 3.87974 10.9821 3.56494 10.5937 3.56494C10.2054 3.56494 9.89062 3.87974 9.89062 4.26807C9.89062 4.65639 10.2054 4.97119 10.5937 4.97119Z" fill="#384949"/>
<path d="M8.48437 4.26807C8.48437 4.66177 8.17504 4.97119 7.78125 4.97119C7.38745 4.97119 7.07812 4.66177 7.07812 4.26807C7.07812 3.87427 7.38745 3.56494 7.78125 3.56494C8.17504 3.56494 8.48437 3.87427 8.48437 4.26807Z" fill="#3E5959"/>
<path d="M4.96875 4.97119C5.35707 4.97119 5.67187 4.65639 5.67187 4.26807C5.67187 3.87974 5.35707 3.56494 4.96875 3.56494C4.58042 3.56494 4.26562 3.87974 4.26562 4.26807C4.26562 4.65639 4.58042 4.97119 4.96875 4.97119Z" fill="#3E5959"/>
<path d="M10.5937 16.9243C10.9821 16.9243 11.2969 16.6095 11.2969 16.2212C11.2969 15.8329 10.9821 15.5181 10.5937 15.5181C10.2054 15.5181 9.89062 15.8329 9.89062 16.2212C9.89062 16.6095 10.2054 16.9243 10.5937 16.9243Z" fill="#384949"/>
<path d="M8.48437 16.2212C8.48437 16.6149 8.17504 16.9243 7.78125 16.9243C7.38745 16.9243 7.07812 16.6149 7.07812 16.2212C7.07812 15.8274 7.38745 15.5181 7.78125 15.5181C8.17504 15.5181 8.48437 15.8274 8.48437 16.2212Z" fill="#3E5959"/>
<path d="M4.96875 16.9245C5.35707 16.9245 5.67187 16.6097 5.67187 16.2214C5.67187 15.8331 5.35707 15.5183 4.96875 15.5183C4.58042 15.5183 4.26562 15.8331 4.26562 16.2214C4.26562 16.6097 4.58042 16.9245 4.96875 16.9245Z" fill="#3E5959"/>
<path d="M8.48437 16.2212C8.48437 16.6149 8.17505 16.9243 7.78125 16.9243V15.518C8.17505 15.518 8.48437 15.8274 8.48437 16.2212Z" fill="#384949"/>
<path d="M7.78125 4.97119V3.56494C8.17505 3.56494 8.48437 3.87427 8.48437 4.26807C8.48437 4.66177 8.17505 4.97119 7.78125 4.97119Z" fill="#384949"/>
<path d="M16.9219 10.5962C16.9219 10.9899 16.6125 11.2993 16.2188 11.2993V9.89305C16.6125 9.89305 16.9219 10.2024 16.9219 10.5962Z" fill="#384949"/>
</g>
<defs>
<clipPath id="clip0_610_22471">
<rect width="24" height="24" fill="white" transform="translate(0 0.00244141)"/>
</clipPath>
</defs>
</svg>
