<svg width="24" height="24" viewBox="0 0 24 24" fill="none" xmlns="http://www.w3.org/2000/svg">
<path d="M24 4.302V14.951C24 16.7702 22.5198 18.2505 20.7004 18.2505H10.2322L3.28784 23.0829V18.2505C1.47378 18.2444 0 16.7665 0 14.951V4.302C0 2.48267 1.48022 1.00244 3.29956 1.00244H20.7004C22.5198 1.00244 24 2.48267 24 4.302Z" fill="#FFDB2D"/>
<path d="M23.9995 4.302V14.951C23.9995 16.7702 22.5193 18.2505 20.7 18.2505H11.9958V1.00244H20.7C22.5193 1.00244 23.9995 2.48267 23.9995 4.302Z" fill="#FFAA20"/>
<path d="M6.42407 5.97119H17.5768V7.37744H6.42407V5.97119Z" fill="white"/>
<path d="M6.42432 8.97119H17.5771V10.3774H6.42432V8.97119Z" fill="white"/>
<path d="M6.42432 11.9712H17.5771V13.3774H6.42432V11.9712Z" fill="white"/>
<path d="M11.9958 5.97119H17.5759V7.37744H11.9958V5.97119Z" fill="#E1E1E3"/>
<path d="M11.9958 8.97119H17.5759V10.3774H11.9958V8.97119Z" fill="#E1E1E3"/>
<path d="M11.9958 11.9712H17.5759V13.3774H11.9958V11.9712Z" fill="#E1E1E3"/>
</svg>
