<svg width="24" height="24" viewBox="0 0 24 24" fill="none" xmlns="http://www.w3.org/2000/svg">
<g clip-path="url(#clip0_610_20421)">
<path d="M20.4853 3.51721C18.2187 1.25072 15.2053 0.00248909 12 0.00248909C8.7947 0.00248909 5.78121 1.25072 3.51472 3.51721C1.24828 5.7837 4.68748e-05 8.79714 0 12.0024C4.68748e-05 15.2078 1.24828 18.2212 3.51472 20.4877C5.78116 22.7542 8.79461 24.0024 11.9999 24.0024C15.2053 24.0024 18.2187 22.7542 20.4852 20.4877C22.7517 18.2213 24 15.2078 24 12.0024C24 8.79714 22.7518 5.7837 20.4853 3.51721Z" fill="#FF5B5B"/>
<path d="M24 12.0024C24 8.79714 22.7517 5.7837 20.4852 3.51721C18.2187 1.25072 15.2053 0.00248909 12 0.00248909V24.0024C15.2053 24.0023 18.2187 22.7541 20.4852 20.4877C22.7517 18.2212 24 15.2078 24 12.0024Z" fill="#FF0059"/>
<path d="M15.1246 12.0023L17.29 9.83684C17.7073 9.41965 17.9372 8.86484 17.9372 8.27464C17.9372 7.68443 17.7074 7.12962 17.2901 6.71234C16.8728 6.29506 16.318 6.06523 15.7279 6.06523C15.1377 6.06523 14.5828 6.29501 14.1657 6.71234L12.0002 8.87787L9.83464 6.71234C9.41736 6.29506 8.86255 6.06523 8.27239 6.06523C7.68224 6.06523 7.12743 6.29501 6.71005 6.71234C6.29282 7.12962 6.06299 7.68448 6.06299 8.27464C6.06304 8.86484 6.29286 9.41961 6.71014 9.83665L8.87577 12.0023L6.71005 14.1679C5.84872 15.0295 5.84877 16.4311 6.7101 17.2924C7.12738 17.7097 7.68214 17.9395 8.2723 17.9395C8.8626 17.9395 9.4175 17.7096 9.8346 17.2922L12.0001 15.1267L14.1657 17.2924C14.5829 17.7097 15.1377 17.9395 15.7279 17.9395C16.3181 17.9395 16.8729 17.7097 17.2901 17.2924C18.1516 16.4311 18.1517 15.0294 17.2902 14.1678L15.1246 12.0023Z" fill="#E7F0EF"/>
<path d="M15.7277 17.9395C16.3179 17.9395 16.8727 17.7097 17.2899 17.2924C18.1514 16.4311 18.1515 15.0294 17.29 14.1678L15.1245 12.0023L17.2898 9.83684C17.7072 9.41965 17.937 8.86484 17.937 8.27464C17.937 7.68443 17.7073 7.12962 17.2899 6.71234C16.8726 6.29506 16.3178 6.06523 15.7277 6.06523C15.1375 6.06523 14.5827 6.29501 14.1655 6.71234L12 8.87787V15.1269L14.1655 17.2924C14.5828 17.7097 15.1376 17.9395 15.7277 17.9395Z" fill="#C5E1E6"/>
</g>
<defs>
<clipPath id="clip0_610_20421">
<rect width="24" height="24" fill="white" transform="translate(0 0.00244141)"/>
</clipPath>
</defs>
</svg>
