<svg width="24" height="24" viewBox="0 0 24 24" fill="none" xmlns="http://www.w3.org/2000/svg">
<g clip-path="url(#clip0_610_20630)">
<path d="M2.85938 8.11557V12.9399H2.10938C1.87875 12.9399 1.6575 12.9817 1.45312 13.0585V8.11557C1.90233 8.29796 2.40933 8.29828 2.85938 8.11557Z" fill="#D5E8FD"/>
<path d="M3.09375 18.6118C3.09375 18.9981 3.13641 19.3745 3.2175 19.7368H2.10938C0.946406 19.7368 0 18.7904 0 17.6274V14.8149C0 13.652 0.946406 12.7056 2.10938 12.7056H3.22828C3.14016 13.0824 3.09375 13.4743 3.09375 13.8774V18.6118Z" fill="#193B66"/>
<path d="M2.15625 8.48682C3.32123 8.48682 4.26562 7.54242 4.26562 6.37744C4.26562 5.21247 3.32123 4.26807 2.15625 4.26807C0.991274 4.26807 0.046875 5.21247 0.046875 6.37744C0.046875 7.54242 0.991274 8.48682 2.15625 8.48682Z" fill="#193B66"/>
<path d="M24 14.8149V17.6274C24 18.7904 23.0536 19.7368 21.8906 19.7368H20.7825C20.8636 19.3745 20.9062 18.9981 20.9062 18.6118V13.8774C20.9062 13.4799 20.8603 13.0867 20.7712 12.7056H21.8906C23.0536 12.7056 24 13.652 24 14.8149Z" fill="#112B48"/>
<path d="M21.1406 13.8774V18.6118C21.1406 21.5842 18.7223 24.0024 15.75 24.0024H8.25C5.27766 24.0024 2.85938 21.5842 2.85938 18.6118V13.8774C2.85938 10.9051 5.27766 8.48682 8.25 8.48682H9.42188V12.0024C9.42188 12.2921 9.66563 12.4717 9.89203 12.4717C9.96375 12.4717 10.0341 12.4548 10.1002 12.4215L12.7645 11.0898C12.7969 11.0734 12.8325 11.0649 12.8691 11.0649H20.3484C20.8636 11.9059 21.1406 12.8776 21.1406 13.8774Z" fill="#EDF5FF"/>
<path d="M21.1406 13.8774V18.6118C21.1406 21.5842 18.7223 24.0024 15.75 24.0024H12V11.4718L12.7645 11.0898C12.7969 11.0734 12.8325 11.0649 12.8691 11.0649H20.3484C20.8478 11.8759 21.1406 12.8527 21.1406 13.8774Z" fill="#D5E8FD"/>
<path d="M20.9531 0.00244141H12.2344C10.5543 0.00244141 9.1875 1.36927 9.1875 3.04932V12.0024C9.1875 12.527 9.74058 12.8636 10.2051 12.6313L12.8691 11.2993H20.9531C22.6332 11.2993 24 9.93249 24 8.25244V3.04932C24 1.36927 22.6332 0.00244141 20.9531 0.00244141Z" fill="#FFDA2D"/>
<path d="M24 3.04932V8.25244C24 9.93244 22.6331 11.2993 20.9531 11.2993H16.5938V0.00244141H20.9531C22.6331 0.00244141 24 1.36932 24 3.04932Z" fill="#FCBE29"/>
<path d="M12.75 4.97119H20.4375C20.8258 4.97119 21.1406 4.65638 21.1406 4.26807C21.1406 3.87975 20.8258 3.56494 20.4375 3.56494H12.75C12.3617 3.56494 12.0469 3.87975 12.0469 4.26807C12.0469 4.65638 12.3617 4.97119 12.75 4.97119Z" fill="#FE9022"/>
<path d="M21.1406 4.26807C21.1406 4.65619 20.8256 4.97119 20.4375 4.97119H16.5938V3.56494H20.4375C20.8256 3.56494 21.1406 3.87994 21.1406 4.26807Z" fill="#FC585A"/>
<path d="M20.4375 6.37744H12.75C12.3617 6.37744 12.0469 6.69225 12.0469 7.08057C12.0469 7.46888 12.3617 7.78369 12.75 7.78369H20.4375C20.8258 7.78369 21.1406 7.46888 21.1406 7.08057C21.1406 6.69225 20.8258 6.37744 20.4375 6.37744Z" fill="#FE9022"/>
<path d="M21.1406 7.08057C21.1406 7.46869 20.8256 7.78369 20.4375 7.78369H16.5938V6.37744H20.4375C20.8256 6.37744 21.1406 6.69244 21.1406 7.08057Z" fill="#FC585A"/>
<path d="M8.48438 14.1118C8.09606 14.1118 7.78125 14.4266 7.78125 14.8149V16.2212C7.78125 16.6095 8.09606 16.9243 8.48438 16.9243C8.87269 16.9243 9.1875 16.6095 9.1875 16.2212V14.8149C9.1875 14.4266 8.87269 14.1118 8.48438 14.1118Z" fill="#19C0EF"/>
<path d="M15.5156 14.1118C15.1273 14.1118 14.8125 14.4266 14.8125 14.8149V16.2212C14.8125 16.6095 15.1273 16.9243 15.5156 16.9243C15.9039 16.9243 16.2188 16.6095 16.2188 16.2212V14.8149C16.2188 14.4266 15.9039 14.1118 15.5156 14.1118Z" fill="#19C0EF"/>
<path d="M13.4062 18.3306H10.5938C10.2054 18.3306 9.89062 18.6454 9.89062 19.0337C9.89062 19.422 10.2054 19.7368 10.5938 19.7368H13.4062C13.7946 19.7368 14.1094 19.422 14.1094 19.0337C14.1094 18.6454 13.7946 18.3306 13.4062 18.3306Z" fill="#214C80"/>
<path d="M14.1094 19.0337C14.1094 19.4218 13.7944 19.7368 13.4062 19.7368H12V18.3306H13.4062C13.7944 18.3306 14.1094 18.6456 14.1094 19.0337Z" fill="#193B66"/>
</g>
<defs>
<clipPath id="clip0_610_20630">
<rect width="24" height="24" fill="white" transform="translate(0 0.00244141)"/>
</clipPath>
</defs>
</svg>
