<svg width="24" height="24" viewBox="0 0 24 24" fill="none" xmlns="http://www.w3.org/2000/svg">
<path d="M18.3281 10.6032C18.3281 14.0927 15.4895 16.9313 12 16.9313H5.67188V15.5251C6.30084 15.5251 6.85017 15.0966 7.02319 14.5109C6.14977 13.3999 5.67188 12.0253 5.67188 10.6032C5.67188 7.11371 8.51048 4.2751 12 4.2751C15.4895 4.2751 18.3281 7.11371 18.3281 10.6032Z" fill="#FED843"/>
<path d="M18.3281 10.6032C18.3281 7.11371 15.4895 4.2751 12 4.2751V16.9313C15.4895 16.9313 18.3281 14.0928 18.3281 10.6032Z" fill="#FABE2C"/>
<path d="M20.6062 13.6548C19.5796 16.5798 17.1187 18.7876 14.1093 19.4767C13.9125 19.5329 13.7155 19.5751 13.5188 19.6032L13.4338 19.0831C13.3572 18.6143 13.649 18.1634 14.1082 18.0425C14.1086 18.0424 14.109 18.0423 14.1093 18.0422C16.1685 17.4608 17.9045 16.0446 18.8763 14.1352C19.1475 13.6022 19.7735 13.3536 20.3359 13.557L20.6062 13.6548Z" fill="#474F54"/>
<path d="M20.6203 7.55161L20.339 7.65005C19.7766 7.86104 19.158 7.60791 18.8907 7.07354C17.6132 4.61199 15.0261 2.86885 12 2.86885C9.07491 2.86885 6.44536 4.48599 5.12344 7.0876C4.8421 7.60791 4.22344 7.84693 3.67514 7.65005L3.3938 7.55161C3.44996 7.39693 3.50625 7.24229 3.57661 7.0876C5.01103 3.65635 8.31567 1.4626 12 1.44854C16.0051 1.44854 19.3822 4.05094 20.6203 7.55161Z" fill="#575F64"/>
<path d="M4.71572 8.02979C4.82817 7.7064 4.96875 7.38287 5.12344 7.08765H2.10938C0.942094 7.08765 0 8.02979 0 9.19702V12.0095C0 13.1767 0.942094 14.1189 2.10938 14.1189H4.99692L4.70166 13.2048C4.12505 11.4469 4.13892 9.66099 4.71572 8.02979Z" fill="#474F54"/>
<path d="M13.3022 18.2238C13.2967 18.2246 13.2908 18.2251 13.2851 18.2251H13.2795C12.8718 18.2954 12.4501 18.3376 12.0141 18.3376C10.8468 18.3376 9.89062 19.2798 9.89062 20.447C9.89062 21.6142 10.8327 22.5564 12 22.5564C13.1673 22.5564 14.1094 21.6142 14.1094 20.447V18.0423C13.845 18.1118 13.5804 18.1815 13.3022 18.2238Z" fill="#474F54"/>
<path d="M8.48438 9.9001H9.89062V11.3063H8.48438V9.9001Z" fill="#575F64"/>
<path d="M11.2969 9.9001H12.7031V11.3063H11.2969V9.9001Z" fill="#575F64"/>
<path d="M14.1094 9.9001H15.5156V11.3063H14.1094V9.9001Z" fill="#474F54"/>
<path d="M13.2823 18.2251H13.2795C12.8718 18.2954 12.4501 18.3376 12.0141 18.3376C12.0092 18.3376 12.0048 18.339 12 18.339V22.5564C13.1673 22.5564 14.1094 21.6142 14.1094 20.447V18.0423C13.846 18.1116 13.5824 18.181 13.3053 18.2233C13.2978 18.2245 13.2899 18.2251 13.2823 18.2251Z" fill="#32393F"/>
<path d="M20.6203 7.55161L20.339 7.65005C19.7766 7.86104 19.158 7.60791 18.8907 7.07354C17.6132 4.61199 15.0261 2.86885 12 2.86885V1.44854C16.0051 1.44854 19.3822 4.05094 20.6203 7.55161Z" fill="#474F54"/>
<path d="M12 9.9001H12.7031V11.3063H12V9.9001Z" fill="#474F54"/>
<path d="M24 9.19697C24 8.02974 23.0579 7.0876 21.8906 7.0876H18.8906L19.2983 8.04385C19.4532 8.45161 19.5656 8.88755 19.6358 9.32349C19.847 10.6313 19.7203 11.9672 19.2843 13.1766L18.8907 14.1188H21.8906C23.0579 14.1188 24 13.1766 24 12.0095V9.19697Z" fill="#32393F"/>
</svg>
