<svg width="24" height="24" viewBox="0 0 24 24" fill="none" xmlns="http://www.w3.org/2000/svg">
<path d="M10.9395 1.93372C5.98074 1.93372 1.94141 5.97304 1.94141 10.9318C1.94141 15.8905 5.98074 19.9377 10.9395 19.9377C13.0575 19.9377 15.0054 19.1954 16.5449 17.963L20.293 21.7091C20.4821 21.8904 20.7347 21.9904 20.9967 21.9878C21.2587 21.9851 21.5093 21.8799 21.6947 21.6948C21.8801 21.5097 21.9856 21.2593 21.9886 20.9973C21.9917 20.7353 21.892 20.4826 21.7109 20.2932L17.9629 16.5451C19.1963 15.0032 19.9395 13.0522 19.9395 10.9318C19.9395 5.97304 15.8982 1.93372 10.9395 1.93372ZM10.9395 3.93375C14.8173 3.93375 17.9375 7.05394 17.9375 10.9318C17.9375 14.8096 14.8173 17.9377 10.9395 17.9377C7.06162 17.9377 3.94141 14.8096 3.94141 10.9318C3.94141 7.05394 7.06162 3.93375 10.9395 3.93375Z" fill="black"/>
</svg>
