<svg width="24" height="24" viewBox="0 0 24 24" fill="none" xmlns="http://www.w3.org/2000/svg">
<g clip-path="url(#clip0_84_3049)">
<mask id="mask0_84_3049" style="mask-type:luminance" maskUnits="userSpaceOnUse" x="0" y="0" width="24" height="25">
<path d="M24 0.00244141H0V24.0024H24V0.00244141Z" fill="white"/>
</mask>
<g mask="url(#mask0_84_3049)">
<path d="M12.3237 22.2539C12.1361 22.0664 12.0308 21.812 12.0308 21.5468C12.0308 21.2816 12.1361 21.0273 12.3237 20.8397L21.347 11.8163L12.3237 2.79295C12.1361 2.60541 12.0308 2.35101 12.0308 2.08579C12.0308 1.82057 12.1361 1.56627 12.3237 1.37874C12.5112 1.1912 12.7655 1.0859 13.0307 1.0859C13.2959 1.0859 13.5503 1.1912 13.7379 1.37874L23.4684 11.1092C23.6559 11.2968 23.7612 11.5512 23.7612 11.8164C23.7612 12.0816 23.6559 12.3359 23.4684 12.5234L13.7379 22.2539C13.5503 22.4415 13.296 22.5468 13.0308 22.5468C12.7656 22.5468 12.5112 22.4415 12.3237 22.2539Z" fill="#8598AA"/>
</g>
</g>
<defs>
<clipPath id="clip0_84_3049">
<rect width="24" height="24" fill="white" transform="translate(0 0.00244141)"/>
</clipPath>
</defs>
</svg>
