<svg width="24" height="24" viewBox="0 0 24 24" fill="none" xmlns="http://www.w3.org/2000/svg">
<g clip-path="url(#clip0_124_4704)">
<path d="M14.3933 22.5597C14.4092 22.4615 14.4166 22.3621 14.4153 22.2627L14.4153 5.33114L14.587 5.70034C14.7578 6.06121 14.9903 6.38952 15.2739 6.67055L20.0219 11.4186C20.6188 12.0439 21.5791 12.149 22.2972 11.6676C23.0623 11.1073 23.2285 10.0328 22.6682 9.26758C22.6229 9.20576 22.5735 9.147 22.5204 9.09178L13.9345 0.505845C13.2642 -0.165146 12.177 -0.165737 11.506 0.504503C11.5056 0.504932 11.5051 0.505415 11.5046 0.505845L2.91871 9.09178C2.24906 9.76331 2.25056 10.8506 2.92209 11.5203C2.97494 11.573 3.03118 11.6222 3.09043 11.6676C3.80848 12.149 4.76876 12.0439 5.3657 11.4186L10.1223 6.67913C10.3745 6.42719 10.586 6.13752 10.7491 5.82054L10.9809 5.30538L10.9809 22.1682C10.9483 23.0454 11.5611 23.815 12.4233 23.9798C13.3595 24.1316 14.2414 23.4958 14.3933 22.5597Z" fill="white"/>
</g>
<defs>
<clipPath id="clip0_124_4704">
<rect width="24" height="24" fill="white" transform="translate(0 0.00244141)"/>
</clipPath>
</defs>
</svg>
