<svg width="40" height="41" viewBox="0 0 40 41" fill="none" xmlns="http://www.w3.org/2000/svg">
<g clip-path="url(#clip0_1747_24761)">
<path d="M34.4531 11.4766V37.8828C34.4531 39.3047 33.3047 40.4531 31.8828 40.4531H8.11719C6.69531 40.4531 5.54688 39.3047 5.54688 37.8828V3.11719C5.54688 1.69531 6.69531 0.546875 8.11719 0.546875H23.5234L34.4531 11.4766Z" fill="#23A566"/>
<path d="M26.3203 20.4141H13.6797C13.2266 20.4141 12.8594 20.7813 12.8594 21.2344V32.2422C12.8594 32.6953 13.2266 33.0625 13.6797 33.0625H26.3281C26.7812 33.0625 27.1484 32.6953 27.1484 32.2422V21.2422C27.1406 20.7891 26.7734 20.4141 26.3203 20.4141ZM14.5 25.6953H19.1797V27.7813H14.5V25.6953ZM20.8203 25.6953H25.5V27.7813H20.8203V25.6953ZM25.5 24.0547H20.8203V22.0625H25.5V24.0547ZM19.1797 22.0625V24.0547H14.5V22.0625H19.1797ZM14.5 29.4297H19.1797V31.4219H14.5V29.4297ZM20.8203 31.4219V29.4297H25.5V31.4219H20.8203Z" fill="white"/>
<path opacity="0.19" d="M24.9922 11.0781L34.4531 18.7422V11.5469L29.0859 8.42969L24.9922 11.0781Z" fill="black"/>
<path d="M34.4531 11.4766H26.0937C24.6719 11.4766 23.5234 10.3281 23.5234 8.90625V0.546875L34.4531 11.4766Z" fill="#8ED1B1"/>
</g>
<defs>
<clipPath id="clip0_1747_24761">
<rect width="40" height="40" fill="white" transform="translate(0 0.5)"/>
</clipPath>
</defs>
</svg>
