<svg width="25" height="24" viewBox="0 0 25 24" fill="none" xmlns="http://www.w3.org/2000/svg">
<path d="M16.4219 7.28739C13.5545 5.37575 9.68149 6.15738 7.77112 9.01983C6.8129 10.4486 7.20234 12.39 8.63603 13.3458C10.0686 14.3016 12.0038 13.9135 12.9596 12.4797C13.9154 11.046 15.8519 10.6626 17.2844 11.6135C18.7193 12.5693 19.1052 14.5107 18.1481 15.9395C20.0597 13.0721 19.287 9.19903 16.4219 7.28739Z" fill="#FF4B55"/>
<path d="M7.77003 9.02109C6.8118 10.4498 7.20124 12.3912 8.63494 13.3471C10.0675 14.3029 12.0027 13.9147 12.9585 12.4809C13.9143 11.0472 15.8508 10.6639 17.2834 11.6148C18.7182 12.5706 19.1041 14.512 18.147 15.9407C16.238 18.8131 12.3661 19.5847 9.49872 17.6732C6.6338 15.7616 5.85846 11.8886 7.77003 9.02109Z" fill="#41479B"/>
<path d="M19.5968 4.93354L20.7303 6.63728C20.8255 6.78043 20.787 6.9737 20.6441 7.06935L20.3567 7.26184C20.2133 7.35791 20.0192 7.31924 19.9234 7.1756L18.7885 5.47221C18.693 5.32892 18.7317 5.1353 18.8749 5.03972L19.1637 4.84688C19.3072 4.75109 19.5012 4.78997 19.5968 4.93354Z" fill="#464655"/>
<path d="M21.3451 7.56043L22.4823 9.26318C22.5783 9.40697 22.5391 9.60144 22.3949 9.6968L22.1062 9.8876C21.963 9.98226 21.7702 9.94338 21.6748 9.80065L20.5382 8.09974C20.4425 7.95645 20.481 7.76275 20.6243 7.66696L20.9123 7.4744C21.0555 7.37854 21.2494 7.41707 21.3451 7.56043Z" fill="#464655"/>
<path d="M20.8092 4.12332L23.6955 8.45488C23.7911 8.59824 23.7523 8.79193 23.6089 8.88751L23.3189 9.08085C23.1756 9.17642 22.9818 9.13769 22.8862 8.99432L19.999 4.66312C19.9033 4.51969 19.9422 4.32585 20.0857 4.23035L20.3766 4.03672C20.5201 3.94115 20.7137 3.97996 20.8092 4.12332Z" fill="#464655"/>
<path d="M22.0203 3.31347L23.1563 5.0206C23.252 5.16439 23.2127 5.35851 23.0686 5.4538L22.7797 5.64474C22.6363 5.73946 22.4434 5.70051 22.348 5.5575L21.2112 3.85263C21.1155 3.70927 21.1543 3.51551 21.2977 3.41993L21.5875 3.2268C21.7309 3.13108 21.9247 3.16997 22.0203 3.31347Z" fill="#464655"/>
<path d="M23.771 5.94672L24.9053 7.65032C25.0007 7.79354 24.9621 7.98695 24.819 8.0826L24.5309 8.27523C24.3875 8.37116 24.1934 8.33242 24.0978 8.18878L22.9635 6.48518C22.8681 6.34196 22.9067 6.14855 23.0498 6.0529L23.3378 5.86027C23.4813 5.76434 23.6753 5.80308 23.771 5.94672Z" fill="#464655"/>
<path d="M4.24178 15.1688L7.12769 19.4957C7.22327 19.639 7.18467 19.8327 7.04138 19.9283L6.75232 20.1213C6.60896 20.217 6.41512 20.1784 6.31948 20.0349L3.43356 15.708C3.33799 15.5647 3.37666 15.371 3.51988 15.2754L3.80893 15.0824C3.95237 14.9867 4.14613 15.0254 4.24178 15.1688Z" fill="#464655"/>
<path d="M3.03122 15.9759L4.16419 17.6754C4.25963 17.8186 4.22117 18.0121 4.07816 18.1078L3.79073 18.3002C3.64744 18.3961 3.45346 18.3576 3.35767 18.2142L2.22322 16.5151C2.1275 16.3718 2.16617 16.178 2.30946 16.0823L2.59831 15.8895C2.74174 15.7938 2.93558 15.8325 3.03122 15.9759Z" fill="#464655"/>
<path d="M4.78093 18.6064L5.91532 20.3101C6.01068 20.4533 5.97208 20.6468 5.829 20.7424L5.54072 20.9351C5.39729 21.031 5.20331 20.9923 5.10767 20.8487L3.97257 19.1453C3.87707 19.002 3.91574 18.8084 4.05896 18.7128L4.34794 18.5198C4.49138 18.4241 4.68536 18.4628 4.78093 18.6064Z" fill="#464655"/>
<path d="M1.81865 16.786L4.70272 21.1131C4.79823 21.2563 4.75963 21.4498 4.61648 21.5455L4.32827 21.7381C4.18491 21.834 3.991 21.7953 3.89528 21.6519L1.00951 17.3253C0.913865 17.182 0.952604 16.9882 1.09604 16.8926L1.38594 16.6993C1.52931 16.6039 1.72307 16.6426 1.81865 16.786Z" fill="#464655"/>
<path d="M3.43499 9.26077L6.32048 4.93042C6.41613 4.78692 6.60996 4.74818 6.75339 4.84396L7.04231 5.03688C7.1856 5.13253 7.2242 5.32622 7.12863 5.46951L4.24201 9.79739C4.14664 9.9404 3.95358 9.97936 3.81022 9.88449L3.52244 9.69404C3.37837 9.59868 3.3392 9.40456 3.43499 9.26077Z" fill="#464655"/>
<path d="M2.2216 8.45456L5.10765 4.12335C5.2033 3.97978 5.39727 3.94111 5.54071 4.03697L5.82892 4.2296C5.972 4.32525 6.01059 4.51873 5.91516 4.66195L3.02988 8.99344C2.93431 9.13694 2.7404 9.17575 2.59697 9.07996L2.30798 8.88705C2.16476 8.79147 2.12609 8.59785 2.2216 8.45456Z" fill="#464655"/>
<path d="M1.00939 7.64915L3.89565 3.31364C3.9913 3.16999 4.18535 3.13125 4.32878 3.22718L4.61699 3.41989C4.76 3.51553 4.79867 3.70887 4.70338 3.85209L1.81881 8.18818C1.7233 8.33175 1.52946 8.37063 1.38596 8.27498L1.09605 8.08171C0.952692 7.98614 0.913882 7.79251 1.00939 7.64915Z" fill="#464655"/>
<path d="M18.7886 19.4951L19.9231 17.796C20.0189 17.6526 20.2129 17.6141 20.3562 17.71L20.6437 17.9025C20.7867 17.9982 20.8251 18.1917 20.7297 18.3349L19.5966 20.0343C19.501 20.1777 19.3072 20.2165 19.1638 20.1207L18.875 19.9279C18.7316 19.8322 18.6929 19.6385 18.7886 19.4951Z" fill="#464655"/>
<path d="M20.5379 16.8766L21.6741 15.1691C21.7696 15.0255 21.9634 14.9867 22.1069 15.0823L22.3965 15.2753C22.54 15.371 22.5787 15.5649 22.4829 15.7082L21.3443 17.413C21.2488 17.556 21.0557 17.5948 20.9124 17.4998L20.6252 17.3095C20.4815 17.2142 20.4423 17.0202 20.5379 16.8766Z" fill="#464655"/>
<path d="M19.9989 20.3069L21.1341 18.6034C21.2297 18.4599 21.4234 18.4211 21.5669 18.5168L21.857 18.7103C22.0003 18.8058 22.0391 18.9994 21.9436 19.1428L20.8092 20.8465C20.7137 20.9899 20.52 21.0288 20.3765 20.9333L20.0857 20.7397C19.9422 20.6442 19.9033 20.4504 19.9989 20.3069Z" fill="#464655"/>
<path d="M21.7518 17.6752L22.8876 15.9756C22.9832 15.8325 23.1768 15.7939 23.32 15.8894L23.61 16.0826C23.7535 16.1783 23.7921 16.3722 23.6963 16.5156L22.5606 18.2152C22.465 18.3584 22.2714 18.3969 22.1281 18.3014L21.8381 18.1081C21.6947 18.0125 21.656 17.8185 21.7518 17.6752Z" fill="#464655"/>
<path d="M21.2113 21.1136L22.3477 19.413C22.443 19.2702 22.6359 19.2314 22.7791 19.3261L23.068 19.517C23.2122 19.6123 23.2515 19.8066 23.1556 19.9504L22.0201 21.6532C21.9245 21.7966 21.7308 21.8353 21.5874 21.7398L21.2976 21.5466C21.1542 21.4509 21.1155 21.2569 21.2113 21.1136Z" fill="#464655"/>
<path d="M22.9634 18.4887L24.097 16.7861C24.1927 16.6425 24.3867 16.6037 24.5302 16.6997L24.818 16.8921C24.9612 16.9878 24.9997 17.1814 24.9041 17.3246L23.7697 19.025C23.6742 19.168 23.481 19.2069 23.3377 19.1119L23.0508 18.9216C22.9069 18.8264 22.8679 18.6324 22.9634 18.4887Z" fill="#464655"/>
</svg>
