<svg width="24" height="24" viewBox="0 0 24 24" fill="none" xmlns="http://www.w3.org/2000/svg">
<g clip-path="url(#clip0_16_546)">
<path d="M3.93487 10.2858H20.7661C20.951 10.2857 21.1317 10.2309 21.2854 10.1281C21.4392 10.0254 21.559 9.87934 21.6298 9.7085C21.7005 9.53766 21.719 9.34968 21.683 9.16833C21.6469 8.98697 21.5579 8.82037 21.4271 8.6896L13.0116 0.274007C12.9248 0.187141 12.8217 0.118231 12.7083 0.0712154C12.5948 0.0241996 12.4733 0 12.3505 0C12.2277 0 12.1061 0.0241996 11.9926 0.0712154C11.8792 0.118231 11.7762 0.187141 11.6894 0.274007L3.27378 8.6896C3.14304 8.82037 3.05402 8.98697 3.01796 9.16833C2.98189 9.34968 3.00041 9.53766 3.07117 9.7085C3.14192 9.87934 3.26174 10.0254 3.41548 10.1281C3.56921 10.2309 3.74996 10.2857 3.93487 10.2858Z" fill="#AFBCC9"/>
<path d="M20.7661 13.7143H3.93487C3.74996 13.7143 3.56921 13.7692 3.41548 13.8719C3.26174 13.9747 3.14192 14.1207 3.07117 14.2915C3.00041 14.4624 2.98189 14.6503 3.01796 14.8317C3.05402 15.0131 3.14304 15.1797 3.27378 15.3104L11.6894 23.726C11.7762 23.8129 11.8792 23.8818 11.9927 23.9288C12.1061 23.9758 12.2277 24 12.3505 24C12.4732 24 12.5948 23.9758 12.7083 23.9288C12.8217 23.8818 12.9248 23.8129 13.0116 23.726L21.4271 15.3104C21.5579 15.1797 21.6469 15.0131 21.683 14.8317C21.719 14.6503 21.7005 14.4624 21.6298 14.2915C21.559 14.1207 21.4392 13.9747 21.2854 13.8719C21.1317 13.7692 20.951 13.7143 20.7661 13.7143Z" fill="#AFBCC9"/>
</g>
<defs>
<clipPath id="clip0_16_546">
<rect width="24" height="24" fill="white" transform="translate(0 0.00244141)"/>
</clipPath>
</defs>
</svg>
