<svg width="24" height="24" viewBox="0 0 24 24" fill="none" xmlns="http://www.w3.org/2000/svg">
<g clip-path="url(#clip0_580_17173)">
<path d="M24 22.5024C24 23.3309 23.3284 24.0024 22.5 24.0024H1.5C0.671578 24.0024 0 23.3309 0 22.5024C0 21.674 0.671578 21.0024 1.5 21.0024H22.5C23.3284 21.0024 24 21.674 24 22.5024ZM10.9394 17.7506C11.2323 18.0436 11.6161 18.19 12 18.19C12.3838 18.19 12.7678 18.0435 13.0606 17.7506L18.3752 12.4361C18.961 11.8503 18.961 10.9006 18.3752 10.3148C17.7894 9.72896 16.8397 9.72896 16.2539 10.3148L13.5 13.0687V1.50244C13.5 0.67402 12.8284 0.00244141 12 0.00244141C11.1716 0.00244141 10.5 0.67402 10.5 1.50244V13.0687L7.74609 10.3148C7.1603 9.72896 6.21056 9.72896 5.62477 10.3148C5.03897 10.9006 5.03897 11.8503 5.62477 12.4361L10.9394 17.7506Z" fill="#222222"/>
</g>
<defs>
<clipPath id="clip0_580_17173">
<rect width="24" height="24" fill="white" transform="translate(0 0.00244141)"/>
</clipPath>
</defs>
</svg>
