<svg width="14" height="15" viewBox="0 0 14 15" fill="none" xmlns="http://www.w3.org/2000/svg">
<g clip-path="url(#clip0_1612_21440)">
<path d="M13.3 12.69H12.306V6.38998C12.306 3.46398 9.926 1.08398 7 1.08398C4.074 1.08398 1.694 3.46398 1.694 6.38998V12.69H0.7C0.3136 12.69 0 13.0029 0 13.39C0 13.7771 0.3136 14.09 0.7 14.09H13.3C13.6871 14.09 14 13.7771 14 13.39C14 13.0029 13.6871 12.69 13.3 12.69ZM7 3.53398C7.385 3.53398 7.7 3.84898 7.7 4.23398C7.7 4.61898 7.385 4.93398 7 4.93398C6.195 4.93398 5.544 5.58498 5.544 6.38998C5.544 6.77498 5.229 7.08998 4.844 7.08998C4.459 7.08998 4.144 6.77498 4.144 6.38998C4.144 4.81498 5.425 3.53398 7 3.53398Z" fill="#FF0000"/>
</g>
<defs>
<clipPath id="clip0_1612_21440">
<rect width="14" height="14" fill="white" transform="translate(0 0.5)"/>
</clipPath>
</defs>
</svg>
