<svg width="24" height="24" viewBox="0 0 24 24" fill="none" xmlns="http://www.w3.org/2000/svg">
<g clip-path="url(#clip0_217_4195)">
<path d="M21.4332 4.99554L19.3333 4.99261L17.418 0.863911C17.1754 0.341141 16.6464 0.00278303 16.0701 0.00190418L14.8034 0C14.8031 0 14.8031 0 14.8028 0C14.7141 0 14.63 0.0392554 14.5729 0.107366C14.5157 0.175477 14.492 0.265413 14.5075 0.352859L15.3325 4.95482C14.9212 4.98734 14.1622 5.04505 13.3135 5.08299L12.635 3.60153C12.4935 3.28544 12.178 3.08096 11.8314 3.08023L10.282 3.07789C10.2817 3.07789 10.2817 3.07789 10.2814 3.07789C10.195 3.07789 10.1127 3.11524 10.0556 3.18042C9.99845 3.2456 9.97267 3.33231 9.98409 3.41815L10.4314 6.71399L9.97237 10.0084C9.96036 10.0943 9.98614 10.1811 10.043 10.2465C10.0998 10.312 10.1821 10.3497 10.2688 10.3498L11.818 10.3521C12.1592 10.3463 12.4806 10.1494 12.623 9.83567L13.3076 8.35407C14.156 8.39465 14.9156 8.45485 15.3263 8.48854L14.4844 13.0877C14.4683 13.1752 14.492 13.2652 14.5488 13.3336C14.6057 13.402 14.69 13.4416 14.7788 13.4417L16.0452 13.4436H16.0476C16.6232 13.4436 17.1523 13.107 17.3963 12.5859L19.3272 8.46305L21.4159 8.46583C21.4698 8.46876 22.7395 8.50626 23.6417 7.59621C24.1201 7.11357 24.1216 6.35644 23.6453 5.87249C22.7465 4.95951 21.4765 4.99349 21.4332 4.99554ZM23.2158 7.17377C22.5022 7.8937 21.4478 7.86689 21.4282 7.86616L19.137 7.86279C19.1367 7.86279 19.1367 7.86279 19.1365 7.86279C19.0202 7.86279 18.9141 7.93017 18.8649 8.03549L16.8532 12.3315C16.7073 12.6427 16.3912 12.8437 16.0476 12.8437C16.0473 12.8437 16.0467 12.8437 16.0464 12.8437L15.1391 12.8424L15.9761 8.26985C15.9916 8.1846 15.967 8.09671 15.9131 8.0289C15.8592 7.96122 15.7757 7.91992 15.6893 7.91596C15.6673 7.91494 15.6 7.90923 15.4954 7.90058C15.097 7.86748 14.1648 7.79014 13.1327 7.74547C13.0097 7.74195 12.8984 7.80889 12.8474 7.91933L12.0772 9.58593C12.0315 9.687 11.9305 9.75218 11.8194 9.75218L10.6139 9.75042L11.0314 6.75603C11.0352 6.72893 11.0352 6.70139 11.0317 6.67429L10.6251 3.67843L11.8303 3.68019C11.9413 3.68034 12.0424 3.74596 12.0886 3.84922L12.8521 5.51626C12.9025 5.62656 13.0021 5.69393 13.1368 5.691C14.1709 5.64955 15.1037 5.575 15.5021 5.54306C15.6055 5.53486 15.6723 5.5293 15.6855 5.52856H15.6864C15.7751 5.52856 15.8592 5.48931 15.9163 5.42134C15.9735 5.35323 15.9975 5.26315 15.9817 5.1757L15.1614 0.600549L16.069 0.601867C16.4132 0.602453 16.729 0.804442 16.8737 1.11643L18.8696 5.41856C18.9188 5.52432 19.0245 5.59213 19.1414 5.59228L21.4437 5.59536C21.456 5.59506 22.5007 5.56533 23.2175 6.29346C23.461 6.54056 23.4601 6.92726 23.2158 7.17377Z" fill="#AFBCC9"/>
<path d="M21.7202 22.6996C21.2542 23.0082 20.7336 23.2182 20.1723 23.3239C20.0097 23.3546 19.9025 23.5115 19.9332 23.6742C19.9602 23.8184 20.0862 23.9187 20.2277 23.9187C20.2461 23.9187 20.2649 23.9171 20.2836 23.9136C20.9234 23.7929 21.5184 23.5528 22.0513 23.1999C22.1895 23.1084 22.2273 22.9222 22.1359 22.7841C22.0442 22.646 21.8585 22.6082 21.7202 22.6996Z" fill="#AFBCC9"/>
<path d="M23.3887 19.9562C23.3468 20.509 23.1751 21.0334 22.8778 21.5146C22.7908 21.6555 22.8344 21.8403 22.9753 21.9274C23.0243 21.9578 23.0787 21.9722 23.1326 21.9722C23.2331 21.9722 23.3316 21.9216 23.3881 21.8298C23.7364 21.2662 23.938 20.651 23.9869 20.0014C23.9995 19.8361 23.8756 19.6921 23.7103 19.6797C23.5466 19.6646 23.4013 19.7909 23.3887 19.9562Z" fill="#AFBCC9"/>
<path d="M8.90205 6.7218C8.90205 6.55613 8.76788 6.42181 8.60207 6.42181H6.80218C6.63637 6.42181 6.5022 6.55613 6.5022 6.7218C6.5022 6.88746 6.63637 7.02178 6.80218 7.02178H8.60207C8.76788 7.02178 8.90205 6.88746 8.90205 6.7218Z" fill="#AFBCC9"/>
<path d="M22.8086 16.2878C22.6738 16.3842 22.6428 16.5715 22.7391 16.7063C23.0699 17.1684 23.279 17.6797 23.3608 18.2259C23.383 18.3748 23.5111 18.4815 23.6572 18.4815C23.6719 18.4815 23.6868 18.4805 23.7018 18.4782C23.8658 18.4537 23.9786 18.3011 23.9543 18.1372C23.8582 17.4962 23.6136 16.8973 23.2272 16.3571C23.1308 16.2223 22.9436 16.191 22.8086 16.2878Z" fill="#AFBCC9"/>
<path d="M16.3335 23.7C16.3335 23.8657 16.4677 24 16.6335 24H18.4334C18.5992 24 18.7333 23.8657 18.7333 23.7C18.7333 23.5343 18.5992 23.4 18.4334 23.4H16.6335C16.4677 23.4 16.3335 23.5343 16.3335 23.7Z" fill="#AFBCC9"/>
<path d="M21.8055 15.0773C21.2518 14.758 20.6443 14.5539 19.9989 14.4707C19.831 14.4485 19.6843 14.5658 19.6629 14.7298C19.6418 14.8942 19.7578 15.0446 19.9221 15.0657C20.4884 15.1388 21.021 15.3175 21.5055 15.597C21.553 15.6242 21.6043 15.6371 21.6552 15.6371C21.7589 15.6371 21.8597 15.5834 21.9154 15.487C21.9983 15.3436 21.9491 15.16 21.8055 15.0773Z" fill="#AFBCC9"/>
<path d="M18.1621 14.4293H16.3622C16.1964 14.4293 16.0623 14.5636 16.0623 14.7293C16.0623 14.895 16.1964 15.0293 16.3622 15.0293H18.1621C18.3279 15.0293 18.4621 14.895 18.4621 14.7293C18.4621 14.5636 18.3279 14.4293 18.1621 14.4293Z" fill="#AFBCC9"/>
<path d="M0.299981 24H0.434446C0.600256 24 0.734427 23.8657 0.734427 23.7C0.734427 23.5343 0.600256 23.4 0.434446 23.4H0.299981C0.134171 23.4 0 23.5343 0 23.7C0 23.8657 0.134171 24 0.299981 24Z" fill="#AFBCC9"/>
<path d="M11.2339 23.4H9.43401C9.2682 23.4 9.13403 23.5343 9.13403 23.7C9.13403 23.8657 9.2682 24 9.43401 24H11.2339C11.3997 24 11.5339 23.8657 11.5339 23.7C11.5339 23.5343 11.3997 23.4 11.2339 23.4Z" fill="#AFBCC9"/>
<path d="M14.5625 14.4293H12.7626C12.5968 14.4293 12.4626 14.5636 12.4626 14.7293C12.4626 14.895 12.5968 15.0293 12.7626 15.0293H14.5625C14.7283 15.0293 14.8625 14.895 14.8625 14.7293C14.8625 14.5636 14.7283 14.4293 14.5625 14.4293Z" fill="#AFBCC9"/>
<path d="M10.9627 14.4293H9.16277C8.99696 14.4293 8.86279 14.5636 8.86279 14.7293C8.86279 14.895 8.99696 15.0293 9.16277 15.0293H10.9627C11.1285 15.0293 11.2626 14.895 11.2626 14.7293C11.2626 14.5636 11.1285 14.4293 10.9627 14.4293Z" fill="#AFBCC9"/>
<path d="M0.0115864 11.028C0.0602162 11.6776 0.26118 12.2928 0.608913 12.8569C0.665745 12.9489 0.763883 12.9994 0.864658 12.9994C0.918268 12.9994 0.972757 12.985 1.02168 12.9547C1.16288 12.8679 1.20653 12.683 1.11982 12.5419C0.822767 12.0605 0.65139 11.536 0.609791 10.9832C0.597488 10.8178 0.453942 10.6958 0.288132 10.7065C0.122908 10.7188 -0.000717484 10.8628 0.0115864 11.028Z" fill="#AFBCC9"/>
<path d="M5.00246 6.42181H4.64711C4.12888 6.42181 3.61973 6.50032 3.13402 6.655C2.97612 6.70524 2.88912 6.87398 2.93921 7.03188C2.97993 7.15946 3.09799 7.2409 3.22513 7.2409C3.2553 7.2409 3.28577 7.23622 3.31624 7.22655C3.74277 7.09062 4.19069 7.02178 4.64711 7.02178H5.00246C5.16827 7.02178 5.30244 6.88746 5.30244 6.7218C5.30244 6.55613 5.16827 6.42181 5.00246 6.42181Z" fill="#AFBCC9"/>
<path d="M2.23431 23.4C2.0685 23.4 1.93433 23.5343 1.93433 23.7C1.93433 23.8657 2.0685 24 2.23431 24H4.0342C4.20001 24 4.33418 23.8657 4.33418 23.7C4.33418 23.5343 4.20001 23.4 4.0342 23.4H2.23431Z" fill="#AFBCC9"/>
<path d="M5.26294 14.7293C5.26294 14.895 5.39711 15.0293 5.56292 15.0293H7.36281C7.52862 15.0293 7.66279 14.895 7.66279 14.7293C7.66279 14.5636 7.52862 14.4293 7.36281 14.4293H5.56292C5.39711 14.4293 5.26294 14.5636 5.26294 14.7293Z" fill="#AFBCC9"/>
<path d="M1.46786 7.58628C0.973657 8.01574 0.579932 8.5495 0.330045 9.12983C0.264424 9.28202 0.334439 9.45852 0.486773 9.52415C0.525443 9.54084 0.565577 9.54875 0.605418 9.54875C0.721427 9.54875 0.831869 9.48079 0.880792 9.36742C1.09552 8.86925 1.43476 8.40991 1.86159 8.03918C1.98639 7.93049 1.99986 7.7411 1.89118 7.61601C1.78249 7.49063 1.59266 7.47789 1.46786 7.58628Z" fill="#AFBCC9"/>
<path d="M1.86066 13.8121C1.76926 13.9502 1.80705 14.1364 1.94503 14.2278C2.4782 14.581 3.07259 14.8213 3.71269 14.9423C3.73144 14.946 3.75019 14.9476 3.76864 14.9476C3.91014 14.9476 4.03581 14.8473 4.06306 14.7034C4.09382 14.5405 3.98689 14.3837 3.82401 14.3529C3.2633 14.2467 2.74244 14.0364 2.27665 13.7277C2.13749 13.6359 1.95206 13.6738 1.86066 13.8121Z" fill="#AFBCC9"/>
<path d="M5.83441 23.4C5.6686 23.4 5.53442 23.5343 5.53442 23.7C5.53442 23.8657 5.6686 24 5.83441 24H7.63429C7.8001 24 7.93427 23.8657 7.93427 23.7C7.93427 23.5343 7.8001 23.4 7.63429 23.4H5.83441Z" fill="#AFBCC9"/>
<path d="M12.7339 23.7C12.7339 23.8657 12.8681 24 13.0339 24H14.8338C14.9996 24 15.1337 23.8657 15.1337 23.7C15.1337 23.5343 14.9996 23.4 14.8338 23.4H13.0339C12.8681 23.4 12.7339 23.5343 12.7339 23.7Z" fill="#AFBCC9"/>
</g>
<defs>
<clipPath id="clip0_217_4195">
<rect width="24" height="24" fill="white" transform="translate(0 0.00244141)"/>
</clipPath>
</defs>
</svg>
