<svg width="24" height="24" viewBox="0 0 24 24" fill="none" xmlns="http://www.w3.org/2000/svg">
<g clip-path="url(#clip0_24_1450)">
<path d="M12 0.00244141C5.36761 0.00244141 0 5.36944 0 12.0024C0 18.6347 5.367 24.0024 12 24.0024C18.6324 24.0024 24 18.6354 24 12.0024C24 5.37005 18.633 0.00244141 12 0.00244141ZM12 22.328C6.30647 22.328 1.67442 17.696 1.67442 12.0024C1.67442 6.30886 6.30647 1.67686 12 1.67686C17.6936 1.67686 22.3256 6.30886 22.3256 12.0024C22.3256 17.696 17.6936 22.328 12 22.328Z" fill="#8598AA"/>
<path d="M11.6448 15.1864C10.9814 15.1864 10.4443 15.7392 10.4443 16.4026C10.4443 17.0503 10.9656 17.6189 11.6448 17.6189C12.324 17.6189 12.861 17.0503 12.861 16.4026C12.861 15.7392 12.3082 15.1864 11.6448 15.1864Z" fill="#8598AA"/>
<path d="M11.8503 5.97754C9.71784 5.97754 8.73853 7.24124 8.73853 8.09418C8.73853 8.71021 9.25978 8.99455 9.68624 8.99455C10.5392 8.99455 10.1917 7.77824 11.8029 7.77824C12.5926 7.77824 13.2245 8.12577 13.2245 8.85238C13.2245 9.70532 12.3399 10.195 11.8187 10.6372C11.3606 11.0321 10.7604 11.6797 10.7604 13.0382C10.7604 13.8595 10.9815 14.0965 11.6291 14.0965C12.4031 14.0965 12.561 13.749 12.561 13.4488C12.561 12.6275 12.5768 12.1536 13.4456 11.4744C13.8721 11.1427 15.2147 10.0686 15.2147 8.58379C15.2147 7.09902 13.8721 5.97754 11.8503 5.97754Z" fill="#8598AA"/>
</g>
<defs>
<clipPath id="clip0_24_1450">
<rect width="24" height="24" fill="white" transform="translate(0 0.00244141)"/>
</clipPath>
</defs>
</svg>
