<svg width="24" height="24" viewBox="0 0 24 24" fill="none" xmlns="http://www.w3.org/2000/svg">
<g clip-path="url(#clip0_73_3468)">
<path d="M21 10.0024H3C2.73478 10.0024 2.48043 9.89708 2.29289 9.70955C2.10536 9.52201 2 9.26766 2 9.00244C2 8.73722 2.10536 8.48287 2.29289 8.29533C2.48043 8.1078 2.73478 8.00244 3 8.00244H21C21.2652 8.00244 21.5196 8.1078 21.7071 8.29533C21.8946 8.48287 22 8.73722 22 9.00244C22 9.26766 21.8946 9.52201 21.7071 9.70955C21.5196 9.89708 21.2652 10.0024 21 10.0024ZM22 15.0024C22 14.7372 21.8946 14.4829 21.7071 14.2953C21.5196 14.1078 21.2652 14.0024 21 14.0024H3C2.73478 14.0024 2.48043 14.1078 2.29289 14.2953C2.10536 14.4829 2 14.7372 2 15.0024C2 15.2677 2.10536 15.522 2.29289 15.7095C2.48043 15.8971 2.73478 16.0024 3 16.0024H21C21.2652 16.0024 21.5196 15.8971 21.7071 15.7095C21.8946 15.522 22 15.2677 22 15.0024Z" fill="#AFBCC9"/>
</g>
<defs>
<clipPath id="clip0_73_3468">
<rect width="24" height="24" fill="white" transform="translate(0 0.00244141)"/>
</clipPath>
</defs>
</svg>
