<svg width="24" height="24" viewBox="0 0 24 24" fill="none" xmlns="http://www.w3.org/2000/svg">
<path d="M12 24.0024C18.6274 24.0024 24 18.6299 24 12.0024C24 5.37502 18.6274 0.00244141 12 0.00244141C5.37258 0.00244141 0 5.37502 0 12.0024C0 18.6299 5.37258 24.0024 12 24.0024Z" fill="url(#paint0_linear_581_19975)"/>
<path d="M0 12.0024C0 18.6298 5.37261 24.0024 12 24.0024C18.6274 24.0024 24 18.6298 24 12.0024C24 10.5671 23.7472 9.19103 23.2849 7.91522H0.715059C0.252847 9.19103 0 10.5671 0 12.0024Z" fill="url(#paint1_linear_581_19975)"/>
<path d="M3.51484 20.4877C8.20105 25.1739 15.799 25.174 20.4854 20.4877C25.1717 15.8013 25.1716 8.20336 20.4854 3.51715C19.4705 2.50223 18.3186 1.70797 17.0897 1.13268L1.13037 17.0921C1.70567 18.3209 2.49992 19.4728 3.51484 20.4877Z" fill="url(#paint2_linear_581_19975)"/>
<path d="M10.4894 17.7326C8.47691 17.7326 6.57794 16.9542 5.1426 15.5409C4.84472 15.2475 4.84105 14.7684 5.13427 14.4705C5.42749 14.1726 5.90679 14.1688 6.20467 14.4621C7.35512 15.5949 8.87672 16.2188 10.4892 16.2188C12.1018 16.2188 13.6235 15.5949 14.7738 14.4621C15.0717 14.1688 15.5508 14.1726 15.8442 14.4705C16.1376 14.7684 16.1338 15.2476 15.8359 15.5409C14.4007 16.9542 12.5018 17.7326 10.4894 17.7326Z" fill="url(#paint3_linear_581_19975)"/>
<path d="M10.4894 17.7326C8.47691 17.7326 6.57794 16.9542 5.1426 15.5409C4.84472 15.2475 4.84105 14.7684 5.13427 14.4705C5.42749 14.1726 5.90679 14.1688 6.20467 14.4621C7.35512 15.5949 8.87672 16.2188 10.4892 16.2188C12.1018 16.2188 13.6235 15.5949 14.7738 14.4621C15.0717 14.1688 15.5508 14.1726 15.8442 14.4705C16.1376 14.7684 16.1338 15.2476 15.8359 15.5409C14.4007 16.9542 12.5018 17.7326 10.4894 17.7326Z" fill="url(#paint4_linear_581_19975)"/>
<path d="M8.22202 10.1837C7.85567 10.1837 7.55864 9.88669 7.55864 9.52034C7.55864 8.39106 6.65398 7.47229 5.54207 7.47229C4.43017 7.47229 3.52551 8.39106 3.52551 9.52034C3.52551 9.88669 3.22847 10.1837 2.86212 10.1837C2.49577 10.1837 2.19873 9.88669 2.19873 9.52034C2.19873 7.65935 3.69859 6.14537 5.54221 6.14537C7.38584 6.14537 8.8857 7.65935 8.8857 9.52034C8.88541 9.88669 8.58838 10.1837 8.22202 10.1837Z" fill="url(#paint5_linear_581_19975)"/>
<path d="M8.22202 10.1837C7.85567 10.1837 7.55864 9.88669 7.55864 9.52034C7.55864 8.39106 6.65398 7.47229 5.54207 7.47229C4.43017 7.47229 3.52551 8.39106 3.52551 9.52034C3.52551 9.88669 3.22847 10.1837 2.86212 10.1837C2.49577 10.1837 2.19873 9.88669 2.19873 9.52034C2.19873 7.65935 3.69859 6.14537 5.54221 6.14537C7.38584 6.14537 8.8857 7.65935 8.8857 9.52034C8.88541 9.88669 8.58838 10.1837 8.22202 10.1837Z" fill="url(#paint6_linear_581_19975)"/>
<path d="M18.1166 10.1837C17.7502 10.1837 17.4532 9.88669 17.4532 9.52034C17.4532 8.39106 16.5485 7.47229 15.4366 7.47229C14.3247 7.47229 13.42 8.39106 13.42 9.52034C13.42 9.88669 13.123 10.1837 12.7566 10.1837C12.3903 10.1837 12.0933 9.88669 12.0933 9.52034C12.0933 7.65935 13.5931 6.14537 15.4367 6.14537C17.2804 6.14537 18.7802 7.65935 18.7802 9.52034C18.7801 9.88669 18.483 10.1837 18.1166 10.1837Z" fill="url(#paint7_linear_581_19975)"/>
<path d="M18.1166 10.1837C17.7502 10.1837 17.4532 9.88669 17.4532 9.52034C17.4532 8.39106 16.5485 7.47229 15.4366 7.47229C14.3247 7.47229 13.42 8.39106 13.42 9.52034C13.42 9.88669 13.123 10.1837 12.7566 10.1837C12.3903 10.1837 12.0933 9.88669 12.0933 9.52034C12.0933 7.65935 13.5931 6.14537 15.4367 6.14537C17.2804 6.14537 18.7802 7.65935 18.7802 9.52034C18.7801 9.88669 18.483 10.1837 18.1166 10.1837Z" fill="url(#paint8_linear_581_19975)"/>
<defs>
<linearGradient id="paint0_linear_581_19975" x1="5.75661" y1="5.75905" x2="16.4112" y2="16.4136" gradientUnits="userSpaceOnUse">
<stop stop-color="#FEF0AE"/>
<stop offset="1" stop-color="#FAC600"/>
</linearGradient>
<linearGradient id="paint1_linear_581_19975" x1="11.844" y1="13.7444" x2="10.9327" y2="23.9125" gradientUnits="userSpaceOnUse">
<stop stop-color="#FE9738" stop-opacity="0"/>
<stop offset="1" stop-color="#FE9738"/>
</linearGradient>
<linearGradient id="paint2_linear_581_19975" x1="14.2797" y1="13.3858" x2="21.474" y2="17.7504" gradientUnits="userSpaceOnUse">
<stop stop-color="#FE9738" stop-opacity="0"/>
<stop offset="1" stop-color="#FE9738"/>
</linearGradient>
<linearGradient id="paint3_linear_581_19975" x1="10.4894" y1="16.3594" x2="10.4894" y2="17.4026" gradientUnits="userSpaceOnUse">
<stop stop-color="#5A5A5A"/>
<stop offset="1" stop-color="#444444"/>
</linearGradient>
<linearGradient id="paint4_linear_581_19975" x1="10.4894" y1="17.0548" x2="10.4894" y2="14.5367" gradientUnits="userSpaceOnUse">
<stop stop-color="#433F43" stop-opacity="0"/>
<stop offset="1" stop-color="#1A1A1A"/>
</linearGradient>
<linearGradient id="paint5_linear_581_19975" x1="4.55228" y1="6.29586" x2="5.72941" y2="9.86918" gradientUnits="userSpaceOnUse">
<stop stop-color="#5A5A5A"/>
<stop offset="1" stop-color="#444444"/>
</linearGradient>
<linearGradient id="paint6_linear_581_19975" x1="5.54207" y1="8.74344" x2="5.54207" y2="6.33483" gradientUnits="userSpaceOnUse">
<stop stop-color="#433F43" stop-opacity="0"/>
<stop offset="1" stop-color="#1A1A1A"/>
</linearGradient>
<linearGradient id="paint7_linear_581_19975" x1="14.447" y1="6.29586" x2="15.6241" y2="9.86918" gradientUnits="userSpaceOnUse">
<stop stop-color="#5A5A5A"/>
<stop offset="1" stop-color="#444444"/>
</linearGradient>
<linearGradient id="paint8_linear_581_19975" x1="15.4366" y1="8.74344" x2="15.4366" y2="6.33483" gradientUnits="userSpaceOnUse">
<stop stop-color="#433F43" stop-opacity="0"/>
<stop offset="1" stop-color="#1A1A1A"/>
</linearGradient>
</defs>
</svg>
