<svg width="24" height="24" viewBox="0 0 24 24" fill="none" xmlns="http://www.w3.org/2000/svg">
<g clip-path="url(#clip0_84_2979)">
<path d="M0.86104 4.46167C0.632678 4.46167 0.413669 4.55239 0.252192 4.71387C0.0907157 4.87534 -8.10348e-07 5.09435 -7.90383e-07 5.32271C-5.80761e-07 7.72052 0.952524 10.0201 2.64803 11.7156C4.34353 13.4111 6.64313 14.3636 9.04093 14.3636L17.6513 14.3636C17.8797 14.3636 18.0987 14.2729 18.2602 14.1115C18.4217 13.95 18.5124 13.731 18.5124 13.5026C18.5124 13.2742 18.4217 13.0552 18.2602 12.8938C18.0987 12.7323 17.8797 12.6416 17.6513 12.6416L9.04093 12.6416C7.09985 12.6416 5.23828 11.8705 3.86572 10.4979C2.49317 9.12537 1.72208 7.26379 1.72208 5.32271C1.72208 5.09435 1.63137 4.87534 1.46989 4.71387C1.30841 4.55239 1.0894 4.46167 0.86104 4.46167Z" fill="black"/>
<path d="M23.571 14.1784L13.669 19.8871C13.5382 19.9626 13.3898 20.0024 13.2387 20.0024C13.0876 20.0025 12.9392 19.9628 12.8083 19.8873C12.6775 19.8118 12.5688 19.7033 12.4931 19.5725C12.4175 19.4417 12.3776 19.2934 12.3774 19.1423L12.3774 7.72488C12.3776 7.57381 12.4175 7.42544 12.4931 7.29466C12.5688 7.16389 12.6775 7.05532 12.8083 6.97985C12.9392 6.90439 13.0876 6.86468 13.2387 6.86472C13.3898 6.86475 13.5382 6.90454 13.669 6.98007L23.571 12.6888C23.7015 12.7645 23.8098 12.8731 23.8851 13.0038C23.9603 13.1345 24 13.2827 24 13.4336C24 13.5844 23.9603 13.7326 23.8851 13.8633C23.8098 13.994 23.7015 14.1027 23.571 14.1784Z" fill="black"/>
</g>
<defs>
<clipPath id="clip0_84_2979">
<rect width="24" height="24" fill="white" transform="translate(0 0.00244141)"/>
</clipPath>
</defs>
</svg>
