<svg width="24" height="24" viewBox="0 0 24 24" fill="none" xmlns="http://www.w3.org/2000/svg">
<g clip-path="url(#clip0_1259_35136)">
<mask id="mask0_1259_35136" style="mask-type:luminance" maskUnits="userSpaceOnUse" x="0" y="0" width="24" height="25">
<path d="M24 0.00244141H0V24.0024H24V0.00244141Z" fill="white"/>
</mask>
<g mask="url(#mask0_1259_35136)">
<path d="M1.4177 7.2929C1.60523 7.10537 1.85964 7.00006 2.12486 7.00006C2.39007 7.00006 2.64437 7.10537 2.83191 7.2929L11.8553 16.3163L20.8787 7.29289C21.0662 7.10536 21.3206 7.00005 21.5858 7.00005C21.8511 7.00005 22.1054 7.10536 22.2929 7.29289C22.4804 7.48043 22.5857 7.73473 22.5857 7.99995C22.5857 8.26516 22.4804 8.51957 22.2929 8.70711L12.5624 18.4376C12.3749 18.6251 12.1205 18.7304 11.8552 18.7304C11.59 18.7304 11.3357 18.6251 11.1482 18.4376L1.4177 8.70712C1.23016 8.51958 1.12486 8.26528 1.12486 8.00006C1.12486 7.73485 1.23016 7.48044 1.4177 7.2929Z" fill="#8598AA"/>
</g>
</g>
<defs>
<clipPath id="clip0_1259_35136">
<rect width="24" height="24" fill="white" transform="translate(0 0.00244141)"/>
</clipPath>
</defs>
</svg>
