<svg width="24" height="24" viewBox="0 0 24 24" fill="none" xmlns="http://www.w3.org/2000/svg">
<g clip-path="url(#clip0_19_2169)">
<path fill-rule="evenodd" clip-rule="evenodd" d="M12 2.4C6.69806 2.4 2.4 6.69806 2.4 12C2.4 17.302 6.69806 21.6 12 21.6C17.302 21.6 21.6 17.302 21.6 12C21.6 6.69806 17.302 2.4 12 2.4ZM0 12C0 5.37258 5.37258 0 12 0C18.6274 0 24 5.37258 24 12C24 18.6274 18.6274 24 12 24C5.37258 24 0 18.6274 0 12Z" fill="#FF0000"/>
<path fill-rule="evenodd" clip-rule="evenodd" d="M10.2 7.20009C10.2 6.20597 11.0059 5.40009 12 5.40009H12.012C13.006 5.40009 13.812 6.20597 13.812 7.20009V7.21209C13.812 8.2062 13.006 9.01209 12.012 9.01209H12C11.0059 9.01209 10.2 8.2062 10.2 7.21209V7.20009Z" fill="#FF0000"/>
<path fill-rule="evenodd" clip-rule="evenodd" d="M12 10.8002C12.6628 10.8002 13.2 11.3374 13.2 12.0002V16.8002C13.2 17.4628 12.6628 18.0002 12 18.0002C11.3373 18.0002 10.8 17.4628 10.8 16.8002V12.0002C10.8 11.3374 11.3373 10.8002 12 10.8002Z" fill="#FF0000"/>
</g>
<defs>
<clipPath id="clip0_19_2169">
<rect width="24" height="24" fill="white" transform="translate(0 0.00244141)"/>
</clipPath>
</defs>
</svg>
