<svg width="24" height="24" viewBox="0 0 24 24" fill="none" xmlns="http://www.w3.org/2000/svg">
<g clip-path="url(#clip0_24_2901)">
<path d="M18.75 9.00244H18V6.00244C18 2.69344 15.309 0.00244141 12 0.00244141C8.691 0.00244141 6 2.69344 6 6.00244V9.00244H5.25C4.01 9.00244 3 10.0114 3 11.2524V21.7524C3 22.9934 4.01 24.0024 5.25 24.0024H18.75C19.99 24.0024 21 22.9934 21 21.7524V11.2524C21 10.0114 19.99 9.00244 18.75 9.00244ZM8 6.00244C8 3.79644 9.794 2.00244 12 2.00244C14.206 2.00244 16 3.79644 16 6.00244V9.00244H8V6.00244ZM13 16.7244V19.0024C13 19.5544 12.553 20.0024 12 20.0024C11.447 20.0024 11 19.5544 11 19.0024V16.7244C10.405 16.3774 10 15.7394 10 15.0024C10 13.8994 10.897 13.0024 12 13.0024C13.103 13.0024 14 13.8994 14 15.0024C14 15.7394 13.595 16.3774 13 16.7244Z" fill="#FF5000"/>
</g>
<defs>
<clipPath id="clip0_24_2901">
<rect width="24" height="24" fill="white" transform="translate(0 0.00244141)"/>
</clipPath>
</defs>
</svg>
