<svg width="24" height="24" viewBox="0 0 24 24" fill="none" xmlns="http://www.w3.org/2000/svg">
<g clip-path="url(#clip0_16_2946)">
<path d="M1.77925 3.26752C1.77925 1.49967 3.21346 0.0649414 4.98183 0.0649414C6.74968 0.0649414 8.1839 1.49916 8.1839 3.26752C8.1839 5.03692 6.74968 6.47114 4.98183 6.47114C3.21346 6.47062 1.77925 5.03692 1.77925 3.26752ZM16.3006 3.26752C16.3006 1.49967 17.7364 0.0649414 19.5042 0.0649414C21.2721 0.0649414 22.7068 1.49916 22.7068 3.26752C22.7068 5.03692 21.2726 6.47114 19.5042 6.47114C17.7369 6.47062 16.3006 5.03692 16.3006 3.26752ZM23.8725 16.3846C21.8877 20.9744 17.2395 23.94 12.0305 23.94C6.71043 23.94 2.0349 20.9595 0.118823 16.3464C-0.209647 15.5562 0.164788 14.6493 0.955492 14.3208C1.14968 14.2408 1.3511 14.2026 1.54942 14.2026C2.15678 14.2026 2.73315 14.562 2.98054 15.1585C4.41476 18.6111 7.96698 20.8417 12.0305 20.8417C16.0021 20.8417 19.5337 18.6095 21.0278 15.1544C21.3676 14.3689 22.2797 14.0068 23.0642 14.3477C23.8508 14.687 24.2123 15.5991 23.8725 16.3846Z" fill="white"/>
</g>
<defs>
<clipPath id="clip0_16_2946">
<rect width="24" height="24" fill="white" transform="translate(0 0.00244141)"/>
</clipPath>
</defs>
</svg>
