<svg width="14" height="14" viewBox="0 0 14 14" fill="none" xmlns="http://www.w3.org/2000/svg">
<g clip-path="url(#clip0_610_20153)">
<path d="M11.9 2.09902H11.2V0.699024C11.2 0.513372 11.1263 0.335324 10.995 0.204049C10.8637 0.0727732 10.6857 -0.000976562 10.5 -0.000976562C10.3143 -0.000976562 10.1363 0.0727732 10.005 0.204049C9.87375 0.335324 9.8 0.513372 9.8 0.699024V2.09902H4.2V0.699024C4.2 0.513372 4.12625 0.335324 3.99497 0.204049C3.8637 0.0727732 3.68565 -0.000976562 3.5 -0.000976562C3.31435 -0.000976562 3.1363 0.0727732 3.00503 0.204049C2.87375 0.335324 2.8 0.513372 2.8 0.699024V2.09902H2.1C1.54305 2.09902 1.0089 2.32027 0.615076 2.7141C0.221249 3.10793 0 3.64207 0 4.19902V4.89902H14V4.19902C14 3.64207 13.7788 3.10793 13.3849 2.7141C12.9911 2.32027 12.457 2.09902 11.9 2.09902Z" fill="#343B42"/>
<path d="M0 11.8988C0 12.4558 0.221249 12.9899 0.615076 13.3838C1.0089 13.7776 1.54305 13.9988 2.1 13.9988H11.9C12.457 13.9988 12.9911 13.7776 13.3849 13.3838C13.7788 12.9899 14 12.4558 14 11.8988V6.29883H0V11.8988Z" fill="#343B42"/>
</g>
<defs>
<clipPath id="clip0_610_20153">
<rect width="14" height="14" fill="white"/>
</clipPath>
</defs>
</svg>
