<svg width="24" height="24" viewBox="0 0 24 24" fill="none" xmlns="http://www.w3.org/2000/svg">
<path d="M12 24.0024C18.6274 24.0024 24 18.6299 24 12.0024C24 5.37502 18.6274 0.00244141 12 0.00244141C5.37258 0.00244141 0 5.37502 0 12.0024C0 18.6299 5.37258 24.0024 12 24.0024Z" fill="url(#paint0_linear_581_19974)"/>
<path d="M0 12.0024C0 18.6298 5.37261 24.0024 12 24.0024C18.6274 24.0024 24 18.6298 24 12.0024C24 10.5671 23.7472 9.19103 23.2849 7.91522H0.715059C0.252847 9.19103 0 10.5671 0 12.0024Z" fill="url(#paint1_linear_581_19974)"/>
<path d="M3.51484 20.4877C8.20105 25.1739 15.799 25.174 20.4854 20.4877C25.1717 15.8015 25.1716 8.20336 20.4854 3.51714C19.4705 2.50223 18.3186 1.70797 17.0897 1.13268L1.13037 17.0921C1.70567 18.3209 2.49992 19.4728 3.51484 20.4877Z" fill="url(#paint2_linear_581_19974)"/>
<path d="M13.4413 16.0484C15.4538 16.0484 17.3527 16.8269 18.7881 18.2402C19.086 18.5336 19.0896 19.0127 18.7964 19.3106C18.5032 19.6085 18.0239 19.6123 17.726 19.3189C16.5756 18.1861 15.054 17.5623 13.4414 17.5623C11.8289 17.5623 10.3072 18.1861 9.15687 19.3189C8.85899 19.6123 8.37984 19.6085 8.08647 19.3106C7.79311 19.0127 7.79692 18.5334 8.0948 18.2402C9.53 16.8267 11.4288 16.0484 13.4413 16.0484Z" fill="url(#paint3_linear_581_19974)"/>
<path d="M13.4413 16.0484C15.4538 16.0484 17.3527 16.8269 18.7881 18.2402C19.086 18.5336 19.0896 19.0127 18.7964 19.3106C18.5032 19.6085 18.0239 19.6123 17.726 19.3189C16.5756 18.1861 15.054 17.5623 13.4414 17.5623C11.8289 17.5623 10.3072 18.1861 9.15687 19.3189C8.85899 19.6123 8.37984 19.6085 8.08647 19.3106C7.79311 19.0127 7.79692 18.5334 8.0948 18.2402C9.53 16.8267 11.4288 16.0484 13.4413 16.0484Z" fill="url(#paint4_linear_581_19974)"/>
<path d="M13.4413 16.0484C15.4538 16.0484 17.3527 16.8269 18.7881 18.2402C19.086 18.5336 19.0896 19.0127 18.7964 19.3106C18.5032 19.6085 18.0239 19.6123 17.726 19.3189C16.5756 18.1861 15.054 17.5623 13.4414 17.5623C11.8289 17.5623 10.3072 18.1861 9.15687 19.3189C8.85899 19.6123 8.37984 19.6085 8.08647 19.3106C7.79311 19.0127 7.79692 18.5334 8.0948 18.2402C9.53 16.8267 11.4288 16.0484 13.4413 16.0484Z" fill="url(#paint5_linear_581_19974)"/>
<path d="M21.3382 9.47711C20.9719 9.47711 20.6748 9.77415 20.6748 10.1405C20.6748 11.2698 19.7702 12.1885 18.6583 12.1885C17.5464 12.1885 16.6417 11.2698 16.6417 10.1405C16.6417 9.77415 16.3447 9.47711 15.9783 9.47711C15.612 9.47711 15.3149 9.77415 15.3149 10.1405C15.3149 12.0015 16.8148 13.5155 18.6584 13.5155C20.502 13.5155 22.0019 12.0015 22.0019 10.1405C22.0018 9.77415 21.7047 9.47711 21.3382 9.47711Z" fill="url(#paint6_linear_581_19974)"/>
<path d="M21.3382 9.47807C20.9719 9.47807 20.6748 9.77511 20.6748 10.1415C20.6748 11.2707 19.7702 12.1895 18.6583 12.1895C17.5464 12.1895 16.6417 11.2707 16.6417 10.1415C16.6417 9.77511 16.3447 9.47807 15.9783 9.47807C15.612 9.47807 15.3149 9.77511 15.3149 10.1415C15.3149 12.0025 16.8148 13.5164 18.6584 13.5164C20.502 13.5164 22.0019 12.0025 22.0019 10.1415C22.0018 9.77511 21.7047 9.47807 21.3382 9.47807Z" fill="url(#paint7_linear_581_19974)"/>
<path d="M11.4437 9.47711C11.0774 9.47711 10.7803 9.77415 10.7803 10.1405C10.7803 11.2698 9.87566 12.1885 8.76375 12.1885C7.65185 12.1885 6.74719 11.2698 6.74719 10.1405C6.74719 9.77415 6.45015 9.47711 6.0838 9.47711C5.71745 9.47711 5.42041 9.77415 5.42041 10.1405C5.42041 12.0015 6.92027 13.5155 8.76389 13.5155C10.6075 13.5155 12.1074 12.0015 12.1074 10.1405C12.1071 9.77415 11.8101 9.47711 11.4437 9.47711Z" fill="url(#paint8_linear_581_19974)"/>
<path d="M11.4437 9.47807C11.0774 9.47807 10.7803 9.77511 10.7803 10.1415C10.7803 11.2707 9.87566 12.1895 8.76375 12.1895C7.65185 12.1895 6.74719 11.2707 6.74719 10.1415C6.74719 9.77511 6.45015 9.47807 6.0838 9.47807C5.71745 9.47807 5.42041 9.77511 5.42041 10.1415C5.42041 12.0025 6.92027 13.5164 8.76389 13.5164C10.6075 13.5164 12.1074 12.0025 12.1074 10.1415C12.1071 9.77511 11.8101 9.47807 11.4437 9.47807Z" fill="url(#paint9_linear_581_19974)"/>
<defs>
<linearGradient id="paint0_linear_581_19974" x1="5.75661" y1="5.75905" x2="16.4112" y2="16.4136" gradientUnits="userSpaceOnUse">
<stop stop-color="#FFA1AE"/>
<stop offset="1" stop-color="#FF4565"/>
</linearGradient>
<linearGradient id="paint1_linear_581_19974" x1="11.844" y1="13.7444" x2="10.9327" y2="23.9126" gradientUnits="userSpaceOnUse">
<stop stop-color="#FE0364" stop-opacity="0"/>
<stop offset="0.2343" stop-color="#F90362" stop-opacity="0.234"/>
<stop offset="0.5173" stop-color="#EA035B" stop-opacity="0.517"/>
<stop offset="0.8243" stop-color="#D20250" stop-opacity="0.824"/>
<stop offset="1" stop-color="#C00148"/>
</linearGradient>
<linearGradient id="paint2_linear_581_19974" x1="14.2797" y1="13.3858" x2="21.474" y2="17.7504" gradientUnits="userSpaceOnUse">
<stop stop-color="#FE0364" stop-opacity="0"/>
<stop offset="0.2343" stop-color="#F90362" stop-opacity="0.234"/>
<stop offset="0.5173" stop-color="#EA035B" stop-opacity="0.517"/>
<stop offset="0.8243" stop-color="#D20250" stop-opacity="0.824"/>
<stop offset="1" stop-color="#C00148"/>
</linearGradient>
<linearGradient id="paint3_linear_581_19974" x1="13.8751" y1="16.1769" x2="13.4434" y2="18.7669" gradientUnits="userSpaceOnUse">
<stop stop-color="#5A5A5A"/>
<stop offset="1" stop-color="#444444"/>
</linearGradient>
<linearGradient id="paint4_linear_581_19974" x1="13.4413" y1="18.0387" x2="13.4413" y2="16.2728" gradientUnits="userSpaceOnUse">
<stop stop-color="#433F43" stop-opacity="0"/>
<stop offset="1" stop-color="#1A1A1A"/>
</linearGradient>
<linearGradient id="paint5_linear_581_19974" x1="12.4593" y1="17.5851" x2="11.1283" y2="15.9664" gradientUnits="userSpaceOnUse">
<stop stop-color="#433F43" stop-opacity="0"/>
<stop offset="1" stop-color="#1A1A1A"/>
</linearGradient>
<linearGradient id="paint6_linear_581_19974" x1="18.6583" y1="10.5406" x2="18.6583" y2="13.8979" gradientUnits="userSpaceOnUse">
<stop stop-color="#5A5A5A"/>
<stop offset="1" stop-color="#444444"/>
</linearGradient>
<linearGradient id="paint7_linear_581_19974" x1="18.6583" y1="12.0763" x2="18.6583" y2="9.82212" gradientUnits="userSpaceOnUse">
<stop stop-color="#433F43" stop-opacity="0"/>
<stop offset="1" stop-color="#1A1A1A"/>
</linearGradient>
<linearGradient id="paint8_linear_581_19974" x1="8.76361" y1="10.5406" x2="8.76361" y2="13.8979" gradientUnits="userSpaceOnUse">
<stop stop-color="#5A5A5A"/>
<stop offset="1" stop-color="#444444"/>
</linearGradient>
<linearGradient id="paint9_linear_581_19974" x1="8.76361" y1="12.0763" x2="8.76361" y2="9.82212" gradientUnits="userSpaceOnUse">
<stop stop-color="#433F43" stop-opacity="0"/>
<stop offset="1" stop-color="#1A1A1A"/>
</linearGradient>
</defs>
</svg>
