<svg width="14" height="14" viewBox="0 0 14 14" fill="none" xmlns="http://www.w3.org/2000/svg">
<g clip-path="url(#clip0_1316_23003)">
<path d="M2.33341 5.25H0.466688C0.208969 5.25 0 5.45894 0 5.71669V13.1834C0 13.4412 0.208938 13.6501 0.466688 13.6501H2.33338C2.5911 13.6501 2.80007 13.4412 2.80007 13.1834V5.71666C2.80007 5.45894 2.59116 5.25 2.33341 5.25Z" fill="#8598AA"/>
<path d="M13.9919 6.48779C13.9096 5.76385 13.2334 5.25074 12.5048 5.25074H8.86642C9.17562 4.69708 9.34159 3.13111 9.33423 2.49141C9.32202 1.43253 8.44513 0.583984 7.38622 0.583984H7.00113C6.74319 0.583984 6.53444 0.792706 6.53444 1.05067C6.53444 2.12983 6.11424 4.07769 5.32173 4.87022C4.78832 5.40363 4.33231 5.59692 3.73438 5.89575V12.8982C4.64983 13.2033 5.81218 13.6509 7.58382 13.6509H10.6366C11.6425 13.6509 12.4259 12.7193 12.0361 11.735C12.6299 11.5732 13.0679 11.0286 13.0679 10.3842C13.0679 10.2023 13.0328 10.0283 12.9694 9.86828C13.9701 9.59563 14.3385 8.35997 13.6439 7.58412C13.8991 7.29904 14.0398 6.90911 13.9919 6.48779Z" fill="#8598AA"/>
</g>
<defs>
<clipPath id="clip0_1316_23003">
<rect width="14" height="14" fill="white"/>
</clipPath>
</defs>
</svg>
