<svg width="24" height="24" viewBox="0 0 24 24" fill="none" xmlns="http://www.w3.org/2000/svg">
<g clip-path="url(#clip0_306_13675)">
<path d="M17.0043 5.37941C15.644 4.29096 13.9925 3.42857 12 3.42857C7.26614 3.42857 3.42857 7.26613 3.42857 12C3.42857 16.7338 7.26614 20.5714 12 20.5714C15.7199 20.5714 18.8891 18.2005 20.0738 14.8864C20.2863 14.292 20.8857 13.8935 21.5032 14.0243L22.6211 14.2614C23.2386 14.3922 23.6384 15.0014 23.449 15.6035C21.9185 20.4699 17.3733 24 12 24C5.37258 24 0 18.6274 0 12C0 5.37258 5.37258 0 12 0C15.1811 0 17.659 1.44968 19.4414 2.9424L21.4776 0.90616C21.8045 0.579303 22.296 0.481531 22.7231 0.658423C23.1502 0.835314 23.4286 1.25205 23.4286 1.71429V8C23.4286 8.63118 22.9169 9.14286 22.2857 9.14286H16C15.5378 9.14286 15.121 8.86441 14.9441 8.43735C14.7673 8.0103 14.865 7.51873 15.1919 7.19187L17.0043 5.37941Z" fill="white"/>
</g>
<defs>
<clipPath id="clip0_306_13675">
<rect width="24" height="24" fill="white" transform="translate(0 0.00244141)"/>
</clipPath>
</defs>
</svg>
