<svg width="24" height="24" viewBox="0 0 24 24" fill="none" xmlns="http://www.w3.org/2000/svg">
<g clip-path="url(#clip0_1006_42199)">
<path d="M24.0007 4.00232H0.000732422V20.0025H24.0007V4.00232Z" fill="#F0F0F0"/>
<path d="M24.0007 6.00217H0.000732422V8.00199H24.0007V6.00217Z" fill="#D80027"/>
<path d="M24.0007 10.0023H0.000732422V12.0022H24.0007V10.0023Z" fill="#D80027"/>
<path d="M24.0007 14.002H0.000732422V16.0018H24.0007V14.002Z" fill="#D80027"/>
<path d="M24.0007 18.0022H0.000732422V20.002H24.0007V18.0022Z" fill="#D80027"/>
<path d="M12.0007 4.00232H0.000732422V12.6178H12.0007V4.00232Z" fill="#2E52B2"/>
<path d="M4.67996 7.53171L4.4867 8.12627H3.86157L4.3674 8.49354L4.17413 9.08805L4.67996 8.72079L5.18546 9.08805L4.99224 8.49354L5.49807 8.12627H4.8729L4.67996 7.53171Z" fill="#F0F0F0"/>
<path d="M4.8729 10.2718L4.67996 9.67731L4.4867 10.2718H3.86157L4.3674 10.6391L4.17413 11.2337L4.67996 10.8663L5.18546 11.2337L4.99224 10.6391L5.49807 10.2718H4.8729Z" fill="#F0F0F0"/>
<path d="M2.23086 10.2718L2.03787 9.67731L1.84461 10.2718H1.21948L1.72531 10.6391L1.53204 11.2337L2.03787 10.8663L2.54342 11.2337L2.3502 10.6391L2.85594 10.2718H2.23086Z" fill="#F0F0F0"/>
<path d="M2.03787 7.53171L1.84461 8.12627H1.21948L1.72531 8.49354L1.53204 9.08805L2.03787 8.72079L2.54342 9.08805L2.3502 8.49354L2.85594 8.12627H2.23086L2.03787 7.53171Z" fill="#F0F0F0"/>
<path d="M4.67996 5.38605L4.4867 5.98066H3.86157L4.3674 6.34797L4.17413 6.94248L4.67996 6.57517L5.18546 6.94248L4.99224 6.34797L5.49807 5.98066H4.8729L4.67996 5.38605Z" fill="#F0F0F0"/>
<path d="M2.03787 5.38605L1.84461 5.98066H1.21948L1.72531 6.34797L1.53204 6.94248L2.03787 6.57517L2.54342 6.94248L2.3502 6.34797L2.85594 5.98066H2.23086L2.03787 5.38605Z" fill="#F0F0F0"/>
<path d="M7.32176 7.53171L7.12854 8.12627H6.50342L7.0092 8.49354L6.81603 9.08805L7.32176 8.72079L7.82735 9.08805L7.63409 8.49354L8.13992 8.12627H7.51479L7.32176 7.53171Z" fill="#F0F0F0"/>
<path d="M7.51479 10.2718L7.32176 9.67731L7.12854 10.2718H6.50342L7.0092 10.6391L6.81603 11.2337L7.32176 10.8663L7.82735 11.2337L7.63409 10.6391L8.13992 10.2718H7.51479Z" fill="#F0F0F0"/>
<path d="M10.1568 10.2718L9.96385 9.67731L9.77059 10.2718H9.14551L9.65124 10.6391L9.45802 11.2337L9.96385 10.8663L10.4694 11.2337L10.2761 10.6391L10.782 10.2718H10.1568Z" fill="#F0F0F0"/>
<path d="M9.96385 7.53171L9.77059 8.12627H9.14551L9.65124 8.49354L9.45802 9.08805L9.96385 8.72079L10.4694 9.08805L10.2761 8.49354L10.782 8.12627H10.1568L9.96385 7.53171Z" fill="#F0F0F0"/>
<path d="M7.32176 5.38605L7.12854 5.98066H6.50342L7.0092 6.34797L6.81603 6.94248L7.32176 6.57517L7.82735 6.94248L7.63409 6.34797L8.13992 5.98066H7.51479L7.32176 5.38605Z" fill="#F0F0F0"/>
<path d="M9.96385 5.38605L9.77059 5.98066H9.14551L9.65124 6.34797L9.45802 6.94248L9.96385 6.57517L10.4694 6.94248L10.2761 6.34797L10.782 5.98066H10.1568L9.96385 5.38605Z" fill="#F0F0F0"/>
</g>
<defs>
<clipPath id="clip0_1006_42199">
<rect width="24" height="24" fill="white" transform="translate(0.000732422 0.00244141)"/>
</clipPath>
</defs>
</svg>
