<svg width="24" height="24" viewBox="0 0 24 24" fill="none" xmlns="http://www.w3.org/2000/svg">
<g clip-path="url(#clip0_84_2585)">
<path d="M12 0.00244141C5.36761 0.00244141 0 5.36944 0 12.0024C0 18.6347 5.367 24.0024 12 24.0024C18.6324 24.0024 24 18.6354 24 12.0024C24 5.37005 18.633 0.00244141 12 0.00244141ZM12 22.328C6.30647 22.328 1.67442 17.696 1.67442 12.0024C1.67442 6.30886 6.30647 1.67686 12 1.67686C17.6936 1.67686 22.3256 6.30886 22.3256 12.0024C22.3256 17.696 17.6936 22.328 12 22.328Z" fill="#FF0000"/>
<rect x="7" y="11" width="10" height="2" rx="1" fill="#FF0000"/>
</g>
<defs>
<clipPath id="clip0_84_2585">
<rect width="24" height="24" fill="white" transform="translate(0 0.00244141)"/>
</clipPath>
</defs>
</svg>
