<svg width="24" height="24" viewBox="0 0 24 24" fill="none" xmlns="http://www.w3.org/2000/svg">
<g clip-path="url(#clip0_18_1275)">
<path d="M22.568 9.02863C22.1012 8.96082 21.6557 8.78858 21.2647 8.52472C20.8737 8.26087 20.5472 7.91221 20.3096 7.5047C20.072 7.09719 19.9294 6.64133 19.8924 6.17107C19.8555 5.70081 19.925 5.22827 20.096 4.78863C20.2047 4.50121 20.2207 4.18699 20.1418 3.89001C20.0629 3.59304 19.893 3.3282 19.656 3.13263C18.6096 2.25396 17.4186 1.56371 16.136 1.09263C15.8439 0.984138 15.5251 0.970582 15.2249 1.0539C14.9247 1.13721 14.6584 1.31314 14.464 1.55663C14.1714 1.93075 13.7975 2.23334 13.3706 2.44144C12.9437 2.64954 12.4749 2.75769 12 2.75769C11.5251 2.75769 11.0564 2.64954 10.6294 2.44144C10.2025 2.23334 9.82859 1.93075 9.53601 1.55663C9.34163 1.31314 9.07536 1.13721 8.77514 1.0539C8.47493 0.970582 8.15607 0.984138 7.86401 1.09263C6.67975 1.52754 5.57248 2.14869 4.58401 2.93263C4.33485 3.12988 4.15538 3.40172 4.07189 3.70835C3.98839 4.01498 4.00526 4.34028 4.12001 4.63663C4.30462 5.0879 4.38089 5.57615 4.34271 6.06223C4.30453 6.5483 4.15297 7.01866 3.90017 7.43557C3.64738 7.85249 3.30039 8.20436 2.88705 8.46295C2.4737 8.72154 2.00551 8.87966 1.52002 8.92462C1.20482 8.95833 0.908777 9.09234 0.675466 9.30692C0.442154 9.52151 0.283905 9.80534 0.224017 10.1166C0.0750554 10.854 1.73123e-05 11.6044 1.73123e-05 12.3566C-0.00107756 12.9864 0.0497614 13.6152 0.152017 14.2366C0.202909 14.5579 0.358214 14.8534 0.593921 15.0776C0.829628 15.3017 1.13261 15.4419 1.45602 15.4766C1.95217 15.5232 2.42996 15.6879 2.84938 15.957C3.2688 16.2261 3.61766 16.5918 3.86676 17.0234C4.11586 17.455 4.25794 17.94 4.28113 18.4378C4.30431 18.9356 4.20792 19.4317 4.00001 19.8846C3.86396 20.1792 3.83021 20.5108 3.90413 20.8268C3.97804 21.1427 4.15539 21.425 4.40801 21.6286C5.4481 22.4913 6.62767 23.1704 7.89601 23.6366C8.0582 23.6928 8.22838 23.7225 8.40001 23.7246C8.63535 23.7241 8.86713 23.6672 9.07592 23.5586C9.28472 23.45 9.46444 23.293 9.60001 23.1006C9.88514 22.6852 10.2674 22.3456 10.7135 22.1114C11.1596 21.8772 11.6561 21.7554 12.16 21.7566C12.6482 21.7572 13.1295 21.8718 13.5656 22.0913C14.0017 22.3107 14.3806 22.6289 14.672 23.0206C14.8659 23.2812 15.1404 23.4703 15.453 23.5586C15.7655 23.6469 16.0985 23.6293 16.4 23.5086C17.5598 23.0419 18.6394 22.3967 19.6 21.5966C19.8413 21.3971 20.0131 21.1262 20.0907 20.8229C20.1684 20.5196 20.1478 20.1995 20.032 19.9086C19.8438 19.4632 19.7618 18.9801 19.7924 18.4975C19.8229 18.0149 19.9652 17.546 20.208 17.1278C20.4509 16.7096 20.7876 16.3536 21.1916 16.0879C21.5956 15.8222 22.0558 15.654 22.536 15.5966C22.8473 15.5536 23.1369 15.4125 23.3627 15.1939C23.5885 14.9753 23.7389 14.6904 23.792 14.3806C23.9205 13.7133 23.9901 13.0361 24 12.3566C24.0002 11.6399 23.9332 10.9248 23.8 10.2206C23.746 9.91766 23.5979 9.63943 23.3767 9.42545C23.1555 9.21146 22.8726 9.07261 22.568 9.02863ZM16 12.3566C16 13.1477 15.7654 13.9211 15.3259 14.5789C14.8864 15.2367 14.2616 15.7494 13.5307 16.0521C12.7998 16.3549 11.9956 16.4341 11.2196 16.2798C10.4437 16.1254 9.73099 15.7445 9.17158 15.185C8.61217 14.6256 8.23121 13.9129 8.07687 13.137C7.92253 12.3611 8.00174 11.5568 8.30449 10.8259C8.60724 10.095 9.11993 9.47027 9.77773 9.03075C10.4355 8.59122 11.2089 8.35663 12 8.35663C13.0609 8.35663 14.0783 8.77805 14.8284 9.5282C15.5786 10.2783 16 11.2958 16 12.3566Z" fill="white"/>
</g>
<defs>
<clipPath id="clip0_18_1275">
<rect width="24" height="24" fill="white" transform="translate(0 0.00244141)"/>
</clipPath>
</defs>
</svg>
