<svg width="14" height="14" viewBox="0 0 14 14" fill="none" xmlns="http://www.w3.org/2000/svg">
<g clip-path="url(#clip0_610_20146)">
<path d="M9.9192 3.13701C9.12567 2.50208 8.16227 1.99902 7 1.99902C4.23858 1.99902 2 4.2376 2 6.99902C2 9.76042 4.23858 11.999 7 11.999C9.16993 11.999 11.0187 10.616 11.7097 8.68276C11.8337 8.33602 12.1833 8.10356 12.5435 8.17989L13.1957 8.31816C13.5559 8.39449 13.7891 8.74982 13.6786 9.10109C12.7858 11.9398 10.1344 13.999 7 13.999C3.13401 13.999 0 10.865 0 6.99902C0 3.13303 3.13401 -0.000976562 7 -0.000976562C8.85567 -0.000976562 10.3011 0.84467 11.3408 1.71542L12.5286 0.527617C12.7193 0.33695 13.006 0.279917 13.2551 0.383103C13.5043 0.48629 13.6667 0.729383 13.6667 0.999023V4.66569C13.6667 5.03388 13.3682 5.33236 13 5.33236H9.33333C9.06373 5.33236 8.8206 5.16993 8.7174 4.92081C8.61427 4.6717 8.67127 4.38495 8.86193 4.19428L9.9192 3.13701Z" fill="#AFBCC9"/>
</g>
<defs>
<clipPath id="clip0_610_20146">
<rect width="14" height="14" fill="white"/>
</clipPath>
</defs>
</svg>
