<svg width="24" height="24" viewBox="0 0 24 24" fill="none" xmlns="http://www.w3.org/2000/svg">
<g clip-path="url(#clip0_2842_89032)">
<path d="M0.000732422 4.00244H24.0007V20.0024H0.000732422V4.00244Z" fill="#DC2B19"/>
<path d="M5.16611 7.43939H3.7378L3.29616 6.08065C3.29414 6.07309 3.28105 6.07309 3.27894 6.08065L2.83721 7.43939H1.4096C1.40548 7.43939 1.40135 7.44141 1.39994 7.44563C1.39854 7.44975 1.39994 7.45388 1.40407 7.4559L2.55886 8.29588L2.11792 9.65462C2.11651 9.65875 2.11792 9.66288 2.12064 9.66499C2.12477 9.66771 2.1289 9.66771 2.13162 9.66499L3.28781 8.82501L4.4426 9.66499C4.44462 9.6664 4.44673 9.66701 4.44813 9.66701C4.45085 9.66701 4.45226 9.66631 4.45367 9.66499C4.45779 9.66297 4.4592 9.65884 4.45779 9.65462L4.01615 8.29588L5.17164 7.4559C5.17507 7.45388 5.17647 7.44975 5.17507 7.44563C5.17375 7.4415 5.17024 7.43939 5.16611 7.43939Z" fill="#FFDE06"/>
<path d="M6.72002 6.66386C6.72204 6.66667 6.72485 6.66798 6.72757 6.66798H6.73038C6.73381 6.66728 6.73724 6.66386 6.73724 6.65973L6.77861 6.1898L7.23808 6.0844C7.24159 6.08299 7.24502 6.08027 7.24572 6.07614C7.24572 6.07201 7.243 6.06789 7.23948 6.06648L6.80619 5.88176L6.84756 5.41254C6.84756 5.40841 6.84483 5.40428 6.84202 5.40296C6.8379 5.40156 6.83377 5.40226 6.83104 5.40569L6.52098 5.76125L6.08689 5.57653C6.08277 5.57512 6.07864 5.57583 6.07583 5.57855C6.0731 5.58206 6.0731 5.5861 6.07512 5.58953L6.31843 5.99402L6.00837 6.34958C6.00565 6.353 6.00565 6.35713 6.00696 6.36056C6.00969 6.36407 6.01381 6.36609 6.01733 6.36539L6.47689 6.25928L6.72002 6.66386Z" fill="#FFDE06"/>
<path d="M7.30696 7.48542C7.30353 7.48744 7.30072 7.49166 7.30213 7.49509C7.30213 7.49921 7.30485 7.50264 7.30898 7.50334L7.77337 7.58398L7.84092 8.05109C7.84092 8.05522 7.84434 8.05803 7.84777 8.05864H7.84988C7.8533 8.05864 7.85602 8.05724 7.85813 8.05381L8.0786 7.63694L8.54299 7.71749C8.5437 7.71819 8.5444 7.71819 8.54501 7.71819C8.55055 7.71819 8.55468 7.71406 8.55468 7.70853C8.55468 7.7051 8.55266 7.70238 8.54984 7.70027L8.22248 7.36403L8.44304 6.94646C8.44576 6.94303 8.44444 6.93891 8.44163 6.93609C8.43882 6.93267 8.43469 6.93197 8.43056 6.93408L8.00754 7.14146L7.67956 6.80311C7.67684 6.80039 7.67271 6.79969 7.66858 6.80109C7.66445 6.80311 7.66305 6.80733 7.66305 6.81145L7.72989 7.27795L7.30696 7.48542Z" fill="#FFDE06"/>
<path d="M8.58957 9.14615C8.58808 9.14202 8.58465 9.13991 8.58053 9.13991L8.10928 9.15642L7.94801 8.71338C7.94599 8.70925 7.94248 8.70644 7.93844 8.70714C7.93431 8.70714 7.9308 8.70995 7.9301 8.71408L7.80054 9.16749L7.32929 9.18471C7.32517 9.18471 7.32095 9.18743 7.32025 9.19156C7.31955 9.19569 7.32095 9.19981 7.32367 9.20192L7.71507 9.46517L7.58551 9.91858C7.58411 9.92271 7.58622 9.92684 7.58964 9.92894C7.59105 9.93035 7.59237 9.93035 7.59447 9.93035C7.59658 9.93035 7.59869 9.92965 7.60071 9.92894L7.97138 9.63821L8.36278 9.90145C8.3662 9.90347 8.37104 9.90347 8.37376 9.90075C8.37648 9.89864 8.37789 9.89381 8.37648 9.89038L8.2153 9.44734L8.58597 9.15651C8.59028 9.1544 8.59098 9.14966 8.58957 9.14615Z" fill="#FFDE06"/>
<path d="M7.24166 10.7803L6.80002 10.6142L6.82207 10.143C6.82207 10.1389 6.82005 10.1354 6.81592 10.134C6.81179 10.1326 6.80766 10.134 6.80494 10.1368L6.51007 10.5054L6.06896 10.3387C6.06553 10.3373 6.0607 10.3387 6.05859 10.3414C6.05578 10.3449 6.05578 10.349 6.05789 10.3525L6.31692 10.7466L6.02205 11.1153C6.02003 11.118 6.01933 11.1228 6.02205 11.1262C6.02416 11.129 6.02829 11.1304 6.03242 11.1297L6.48794 11.005L6.74697 11.3991C6.74837 11.4019 6.7511 11.4033 6.75452 11.4033H6.75654C6.76067 11.4019 6.76348 11.3984 6.76348 11.3943L6.78553 10.9231L7.24017 10.7983C7.24438 10.7976 7.24711 10.7942 7.24711 10.7901C7.24711 10.7859 7.24509 10.7824 7.24166 10.7803Z" fill="#FFDE06"/>
</g>
<defs>
<clipPath id="clip0_2842_89032">
<rect width="24" height="24" fill="white" transform="translate(0.000732422 0.00244141)"/>
</clipPath>
</defs>
</svg>
