<svg width="24" height="24" viewBox="0 0 24 24" fill="none" xmlns="http://www.w3.org/2000/svg">
<g clip-path="url(#clip0_13_362)">
<path d="M11.9602 21.9294H2.99002C2.43984 21.9294 1.99336 21.4829 1.99336 20.9327V2.9925C1.99336 2.44233 2.43989 1.99585 2.99002 1.99585H11.9602C12.5113 1.99585 12.9568 1.55035 12.9568 0.999191C12.9568 0.448035 12.5113 0.00244141 11.9602 0.00244141H2.99002C1.34152 0.00244141 0 1.344 0 2.9925V20.9327C0 22.5812 1.34152 23.9227 2.99002 23.9227H11.9602C12.5113 23.9227 12.9568 23.4772 12.9568 22.9261C12.9568 22.3749 12.5113 21.9294 11.9602 21.9294Z" fill="#8598AA"/>
<path d="M23.703 11.253L17.6431 5.2729C17.2524 4.88618 16.6206 4.8912 16.2338 5.28288C15.8471 5.67457 15.8511 6.30546 16.2438 6.69218L20.5744 10.9659H8.97004C8.41889 10.9659 7.97339 11.4114 7.97339 11.9626C7.97339 12.5137 8.41889 12.9593 8.97004 12.9593H20.5744L16.2438 17.233C15.8512 17.6197 15.8482 18.2506 16.2338 18.6423C16.4292 18.8396 16.6863 18.9393 16.9435 18.9393C17.1967 18.9393 17.4498 18.8436 17.6431 18.6522L23.703 12.6722C23.8923 12.4848 24 12.2296 24 11.9625C24 11.6955 23.8933 11.4414 23.703 11.253Z" fill="#8598AA"/>
</g>
<defs>
<clipPath id="clip0_13_362">
<rect width="24" height="24" fill="white" transform="translate(0 0.00244141)"/>
</clipPath>
</defs>
</svg>
