<svg width="74" height="16" viewBox="0 0 74 16" fill="none" xmlns="http://www.w3.org/2000/svg">
<g clip-path="url(#clip0_1316_22981)">
<path d="M61.0488 5.47342L66.1011 2.94727H62.132L61.0488 5.47342Z" fill="#00A5DF"/>
<path d="M22.9846 5.74215L24.0535 3.00781H19.3388H15.171L10.3652 15.8675H19.604L20.6811 13.1083H15.403L16.3145 10.8131H21.0209L21.9986 8.26105H17.2839L18.2699 5.74215H22.9846Z" fill="white"/>
<path d="M22.123 13.1083L21.0293 15.8758C23.4653 16.1409 25.5451 15.8592 25.5451 15.8592C26.9868 15.7183 29.4063 15.2543 30.7155 12.114L34.353 3.00781H30.1852L27.0034 10.8877C27.0034 10.8877 26.4897 12.6028 24.6751 13.0503C24.0288 13.216 22.8356 13.1497 22.123 13.1083Z" fill="white"/>
<path d="M1.09373 13.1083L0 15.8758C2.43604 16.1409 4.50751 15.8592 4.50751 15.8592C5.94925 15.7183 8.37701 15.2543 9.67789 12.114L13.3237 3.00781H9.15588L5.97411 10.8877C5.97411 10.8877 5.46867 12.6028 3.64578 13.0503C2.99948 13.216 1.80632 13.1497 1.09373 13.1083Z" fill="white"/>
<path d="M43.2524 3.00781L40.195 11.2605C39.4658 13.1083 38.8029 13.1994 37.8004 13.1994C36.6155 13.1994 36.9138 12.23 37.0712 11.6583L40.3275 3.00781H36.2095L32.8454 12.0477C31.6688 15.2709 34.3451 15.942 35.6626 15.942H37.8252C39.0101 15.942 42.7222 15.6189 43.8573 12.5863L47.4037 3.00781H43.2442H43.2524Z" fill="white"/>
<path d="M57.0811 15.9909H60.8263L64.6295 5.75781H60.9008L57.0811 15.9909Z" fill="white"/>
<path d="M73.0479 5.75781C71.0427 5.75781 69.8661 6.90955 69.2612 7.64699L70.0152 5.75781H66.2866L62.4668 15.9909H66.212L68.0266 11.1436C68.9629 8.97273 70.9515 8.82358 71.3078 8.82358H72.7247L73.8433 5.75781H73.0479Z" fill="white"/>
<path d="M50.3612 10.2174C47.9832 10.4743 46.0774 11.5597 45.8289 13.5897C45.7046 14.6006 46.2017 15.9844 48.8698 15.9844C48.8698 15.9844 50.8749 16.0672 52.1178 15.2138L51.8195 16.0009H55.4736L57.9842 9.13194L58.1168 8.77565C58.4648 7.84764 58.4482 5.76788 54.0401 5.67674C52.1841 5.63531 49.1432 5.99989 47.3452 9.13194H50.9909C50.9909 9.13194 51.5047 7.78963 53.1867 7.78963C53.1867 7.78963 54.2307 7.73992 54.3136 8.42765C54.3136 8.42765 54.4296 9.43852 52.8967 9.81138C52.0018 10.0268 50.3529 10.2174 50.3529 10.2174M53.1784 12.3137C53.1784 12.3137 52.6895 13.8383 50.5684 13.8383C50.2535 13.8383 49.8061 13.6477 49.8723 13.076C49.9552 12.438 50.3695 12.1894 50.8915 12.0734L53.4436 11.5928L53.1784 12.3137Z" fill="white"/>
</g>
<defs>
<clipPath id="clip0_1316_22981">
<rect width="73.8436" height="16" fill="white"/>
</clipPath>
</defs>
</svg>
