<svg width="24" height="24" viewBox="0 0 24 24" fill="none" xmlns="http://www.w3.org/2000/svg">
<g clip-path="url(#clip0_124_4451)">
<path d="M2.43756 22.2512C2.25002 22.0637 2.14472 21.8093 2.14472 21.5441C2.14472 21.2789 2.25002 21.0246 2.43756 20.837L11.4609 11.8137L2.43755 2.79027C2.25001 2.60273 2.14471 2.34832 2.14471 2.0831C2.14471 1.81789 2.25001 1.56359 2.43755 1.37605C2.62508 1.18852 2.87938 1.08321 3.1446 1.08321C3.40982 1.08321 3.66422 1.18852 3.85176 1.37605L13.5823 11.1065C13.7698 11.2941 13.8751 11.5485 13.8751 11.8137C13.8751 12.0789 13.7698 12.3332 13.5823 12.5208L3.85177 22.2512C3.66423 22.4388 3.40993 22.5441 3.14472 22.5441C2.8795 22.5441 2.62509 22.4388 2.43756 22.2512Z" fill="black"/>
<path d="M11.4376 22.2512C11.2501 22.0637 11.1448 21.8093 11.1448 21.5441C11.1448 21.2789 11.2501 21.0246 11.4376 20.837L20.461 11.8137L11.4376 2.79027C11.2501 2.60273 11.1448 2.34832 11.1448 2.0831C11.1448 1.81789 11.2501 1.56359 11.4376 1.37605C11.6251 1.18852 11.8794 1.08321 12.1447 1.08321C12.4099 1.08321 12.6643 1.18852 12.8518 1.37605L22.5823 11.1065C22.7699 11.2941 22.8752 11.5485 22.8752 11.8137C22.8752 12.0789 22.7699 12.3332 22.5823 12.5208L12.8518 22.2512C12.6643 22.4388 12.41 22.5441 12.1448 22.5441C11.8796 22.5441 11.6252 22.4388 11.4376 22.2512Z" fill="black"/>
</g>
<defs>
<clipPath id="clip0_124_4451">
<rect width="24" height="24" fill="white"/>
</clipPath>
</defs>
</svg>
