<svg width="24" height="24" viewBox="0 0 24 24" fill="none" xmlns="http://www.w3.org/2000/svg">
<g clip-path="url(#clip0_124_4452)">
<path d="M6.43756 22.2512C6.25002 22.0637 6.14472 21.8093 6.14472 21.5441C6.14472 21.2789 6.25002 21.0246 6.43756 20.837L15.4609 11.8137L6.43755 2.79027C6.25001 2.60273 6.14471 2.34832 6.14471 2.0831C6.14471 1.81789 6.25001 1.56359 6.43755 1.37605C6.62508 1.18852 6.87938 1.08321 7.1446 1.08321C7.40982 1.08321 7.66422 1.18852 7.85176 1.37605L17.5823 11.1065C17.7698 11.2941 17.8751 11.5485 17.8751 11.8137C17.8751 12.0789 17.7698 12.3332 17.5823 12.5208L7.85177 22.2512C7.66423 22.4388 7.40993 22.5441 7.14472 22.5441C6.8795 22.5441 6.62509 22.4388 6.43756 22.2512Z" fill="#AFBCC9"/>
</g>
<defs>
<clipPath id="clip0_124_4452">
<rect width="24" height="24" fill="white"/>
</clipPath>
</defs>
</svg>
