<svg width="190" height="131" viewBox="0 0 190 131" fill="none" xmlns="http://www.w3.org/2000/svg">
<path d="M59.2266 130.724H5.56641C2.49227 130.724 0 128.231 0 125.157V5.91211C0 2.83797 2.49227 0.345703 5.56641 0.345703H59.2266C62.3007 0.345703 64.793 2.83797 64.793 5.91211V125.157C64.793 128.231 62.3007 130.724 59.2266 130.724Z" fill="#FFC85A"/>
<path d="M59.2266 0.345703H32.3965V130.723H59.2266C62.3007 130.723 64.793 128.231 64.793 125.157V5.91211C64.793 2.83797 62.3007 0.345703 59.2266 0.345703Z" fill="#FF9355"/>
<path d="M184.433 65.1387H53.2602C50.8648 65.1387 48.7381 63.6065 47.98 61.3343C47.2218 59.0621 48.0022 56.5598 49.9174 55.1214C52.295 53.3357 53.6588 50.6119 53.6588 47.648C53.6588 44.6844 52.295 41.9602 49.9171 40.1742C48.0019 38.7358 47.2218 36.2331 47.98 33.9613C48.7381 31.6895 50.8648 30.1572 53.2602 30.1572H184.433C187.507 30.1572 189.999 32.6495 189.999 35.7236V59.5727C189.999 62.6465 187.507 65.1387 184.433 65.1387Z" fill="#F5F5F5"/>
<path d="M49.9193 55.1219C48.0041 56.5603 47.2237 59.0625 47.9819 61.3347C48.74 63.607 50.8664 65.1392 53.2621 65.1392H184.434C187.508 65.1392 190.001 62.6469 190.001 59.5728V47.6484H53.6607C53.6607 50.6124 52.2969 53.3362 49.9193 55.1219Z" fill="#DEDCDE"/>
<path d="M44.3217 68.12C33.0334 68.12 23.8496 58.9362 23.8496 47.6479C23.8496 36.3596 33.0334 27.1758 44.3217 27.1758C55.61 27.1758 64.7935 36.3596 64.7935 47.6479C64.7935 58.9362 55.61 68.12 44.3217 68.12Z" fill="#352E2F"/>
<path d="M185.777 30.3272C185.345 30.2203 184.897 30.1572 184.433 30.1572H170.203L135.221 65.1391H150.965L185.777 30.3272Z" fill="#FF0032"/>
<path d="M150.173 30.1572H134.429L99.4473 65.1387H115.191L150.173 30.1572Z" fill="#FF0032"/>
<path d="M114.399 30.1572H98.6557L63.6738 65.1387H79.4179L114.399 30.1572Z" fill="#FF0032"/>
<path d="M44.3217 68.1206C55.61 68.1206 64.7935 58.9367 64.7935 47.6484H23.8496C23.8496 58.9367 33.0334 68.1206 44.3217 68.1206Z" fill="#0A0400"/>
<path d="M150.967 65.1392L168.457 47.6484H152.713L135.223 65.1392H150.967Z" fill="#C8003C"/>
<path d="M115.191 65.1392L132.682 47.6484H116.938L99.4473 65.1392H115.191Z" fill="#C8003C"/>
<path d="M79.4198 65.1392L96.9106 47.6484H81.1665L63.6758 65.1392H79.4198Z" fill="#C8003C"/>
</svg>
