<svg width="310" height="180" viewBox="0 0 310 180" fill="none" xmlns="http://www.w3.org/2000/svg">
<path fill-rule="evenodd" clip-rule="evenodd" d="M44.3158 20.0481L0.807725 90.7488C-0.225593 92.4239 -0.269101 94.534 0.693516 96.2526C1.65613 97.9712 3.4726 99.0371 5.44134 99.0371H54.388C57.39 99.0371 59.8265 96.6007 59.8265 93.5986C59.8265 90.5965 57.39 88.1601 54.388 88.1601H15.1763L53.5831 25.7477C55.1548 23.1916 54.3553 19.8415 51.7992 18.2643C49.2431 16.6926 45.893 17.492 44.3158 20.0481Z" fill="#FF5000"/>
<path fill-rule="evenodd" clip-rule="evenodd" d="M48.9492 66.4063V142.546C48.9492 145.548 51.3857 147.984 54.3877 147.984C57.3898 147.984 59.8263 145.548 59.8263 142.546V66.4063C59.8263 63.4042 57.3898 60.9678 54.3877 60.9678C51.3857 60.9678 48.9492 63.4042 48.9492 66.4063Z" fill="#FF5000"/>
<path fill-rule="evenodd" clip-rule="evenodd" d="M294.487 20.0481L250.979 90.7488C249.945 92.4239 249.902 94.534 250.864 96.2526C251.827 97.9712 253.644 99.0371 255.612 99.0371H304.559C307.561 99.0371 309.997 96.6007 309.997 93.5986C309.997 90.5965 307.561 88.1601 304.559 88.1601H265.347L303.754 25.7477C305.326 23.1916 304.526 19.8415 301.97 18.2643C299.414 16.6926 296.064 17.492 294.487 20.0481Z" fill="#FF5000"/>
<path fill-rule="evenodd" clip-rule="evenodd" d="M299.121 66.4063V142.546C299.121 145.548 301.558 147.984 304.56 147.984C307.562 147.984 309.998 145.548 309.998 142.546V66.4063C309.998 63.4042 307.562 60.9678 304.56 60.9678C301.558 60.9678 299.121 63.4042 299.121 66.4063Z" fill="#FF5000"/>
<path fill-rule="evenodd" clip-rule="evenodd" d="M85.6601 64.2479C92.1591 60.4954 102.917 66.9454 109.671 78.6437C116.426 90.3419 116.632 102.883 110.133 106.636C103.634 110.388 92.877 103.938 86.1224 92.24C79.3678 80.5417 79.1611 68.0005 85.6601 64.2479Z" fill="url(#paint0_linear_2166_32131)"/>
<path fill-rule="evenodd" clip-rule="evenodd" d="M227.674 66.5591C221.882 61.784 210.206 66.3687 201.613 76.7943C193.02 87.2145 190.747 99.5491 196.533 104.324C202.325 109.099 214.002 104.514 222.595 94.0888C231.188 83.6686 233.461 71.3341 227.674 66.5591Z" fill="url(#paint1_linear_2166_32131)"/>
<path fill-rule="evenodd" clip-rule="evenodd" d="M160.439 0.00787728C189.829 0.497344 217.032 25.6287 214.824 70.7086C213.464 98.3797 196.328 105.928 186.827 135.965C182.193 150.617 181.714 165.409 181.883 173.415C181.954 174.992 181.334 176.52 180.186 177.597C179.039 178.679 177.472 179.207 175.906 179.038C140.534 173.807 95.1768 126.878 95.1768 81.5856C95.1768 33.5581 124.425 -0.595798 160.439 0.00787728Z" fill="url(#paint2_linear_2166_32131)"/>
<path fill-rule="evenodd" clip-rule="evenodd" d="M98.342 102.959C96.3025 95.8998 95.1768 88.7264 95.1768 81.5856C95.1768 33.5581 124.425 -0.595798 160.439 0.00787728C182.704 0.377696 203.719 14.8931 211.632 41.5092C207.428 82.6189 175.553 114.625 136.912 114.625C122.815 114.625 109.621 110.361 98.342 102.959Z" fill="url(#paint3_linear_2166_32131)"/>
<path d="M155 93.5998C161.007 93.5998 165.877 86.2951 165.877 77.2843C165.877 68.2735 161.007 60.9688 155 60.9688C148.993 60.9688 144.123 68.2735 144.123 77.2843C144.123 86.2951 148.993 93.5998 155 93.5998Z" fill="url(#paint4_linear_2166_32131)"/>
<path fill-rule="evenodd" clip-rule="evenodd" d="M138.478 39.9326C139.463 43.5329 139.522 49.6404 134.144 53.2788C132.898 54.1163 132.572 55.8077 133.409 57.0531C134.252 58.2985 135.944 58.6248 137.184 57.7818C144.999 52.5065 145.151 43.7287 143.726 38.5023C143.329 37.0502 141.834 36.1964 140.387 36.5934C138.94 36.985 138.087 38.4806 138.478 39.9326Z" fill="url(#paint5_linear_2166_32131)"/>
<path fill-rule="evenodd" clip-rule="evenodd" d="M166.273 38.5023C164.848 43.7287 165.001 52.5065 172.816 57.7818C174.056 58.6248 175.747 58.2985 176.59 57.0531C177.428 55.8077 177.101 54.1163 175.856 53.2788C170.477 49.6404 170.537 43.5329 171.522 39.9326C171.913 38.4806 171.059 36.985 169.613 36.5934C168.166 36.1964 166.67 37.0502 166.273 38.5023Z" fill="url(#paint6_linear_2166_32131)"/>
<defs>
<linearGradient id="paint0_linear_2166_32131" x1="78.4215" y1="68.8598" x2="109.008" y2="98.8423" gradientUnits="userSpaceOnUse">
<stop stop-color="#A4BBDB"/>
<stop offset="1" stop-color="#8DA3BE"/>
</linearGradient>
<linearGradient id="paint1_linear_2166_32131" x1="239.237" y1="72.5632" x2="193.379" y2="97.5151" gradientUnits="userSpaceOnUse">
<stop stop-color="#A4BBDB"/>
<stop offset="1" stop-color="#8DA3BE"/>
</linearGradient>
<linearGradient id="paint2_linear_2166_32131" x1="95.1768" y1="89.5313" x2="214.949" y2="89.5313" gradientUnits="userSpaceOnUse">
<stop stop-color="#CADCF0"/>
<stop offset="1" stop-color="#A4BBDB"/>
</linearGradient>
<linearGradient id="paint3_linear_2166_32131" x1="109.056" y1="29.8545" x2="211.632" y2="41.5092" gradientUnits="userSpaceOnUse">
<stop stop-color="#E9F3FC"/>
<stop offset="1" stop-color="#CADCF0"/>
</linearGradient>
<linearGradient id="paint4_linear_2166_32131" x1="131.794" y1="38.2738" x2="180.969" y2="94.0458" gradientUnits="userSpaceOnUse">
<stop stop-color="#738BAB"/>
<stop offset="1" stop-color="#526B8F"/>
</linearGradient>
<linearGradient id="paint5_linear_2166_32131" x1="131.794" y1="38.2739" x2="180.969" y2="94.0459" gradientUnits="userSpaceOnUse">
<stop stop-color="#738BAB"/>
<stop offset="1" stop-color="#526B8F"/>
</linearGradient>
<linearGradient id="paint6_linear_2166_32131" x1="131.793" y1="38.2739" x2="180.968" y2="94.0458" gradientUnits="userSpaceOnUse">
<stop stop-color="#738BAB"/>
<stop offset="1" stop-color="#526B8F"/>
</linearGradient>
</defs>
</svg>
