<svg width="176" height="38" viewBox="0 0 176 38" fill="none" xmlns="http://www.w3.org/2000/svg">
<g clip-path="url(#clip0_9_1753)">
<path d="M145 13L157 7H147.573L145 13Z" fill="#00A5DF"/>
<path d="M54.5928 13.6384L57.1316 7.14392H45.9335H36.0344L24.6199 37.6876H46.5633L49.1217 31.1341H36.5854L38.7503 25.6827H49.9286L52.2509 19.6212H41.0528L43.3948 13.6384H54.5928Z" fill="#E84E0E"/>
<path d="M52.546 31.1341L49.9482 37.7073C55.7342 38.337 60.674 37.6679 60.674 37.6679C64.0983 37.3333 69.8449 36.2313 72.9544 28.7725L81.594 7.14392H71.6949L64.1377 25.8598C64.1377 25.8598 62.9175 29.9336 58.6075 30.9963C57.0725 31.3899 54.2385 31.2325 52.546 31.1341Z" fill="#E84E0E"/>
<path d="M2.59779 31.1341L0 37.7073C5.78598 38.337 10.706 37.6679 10.706 37.6679C14.1304 37.3333 19.8967 36.2313 22.9865 28.7725L31.6458 7.14392H21.7466L14.1894 25.8598C14.1894 25.8598 12.9889 29.9336 8.65929 30.9963C7.12423 31.3899 4.29028 31.2325 2.59779 31.1341Z" fill="#E84E0E"/>
<path d="M102.731 7.14392L95.4687 26.7454C93.7369 31.1341 92.1625 31.3506 89.7812 31.3506C86.9669 31.3506 87.6754 29.048 88.0493 27.69L95.7836 7.14392H86.0026L78.0124 28.615C75.2178 36.2706 81.5745 37.8647 84.7037 37.8647H89.8402C92.6545 37.8647 101.471 37.0972 104.167 29.8942L112.591 7.14392H102.711H102.731Z" fill="#E84E0E"/>
<path d="M135.577 37.9828H144.472L153.506 13.6777H144.649L135.577 37.9828Z" fill="#E84E0E"/>
<path d="M173.501 13.6777C168.738 13.6777 165.943 16.4133 164.507 18.1648L166.298 13.6777H157.441L148.369 37.9828H157.264L161.574 26.4699C163.798 21.3137 168.521 20.9594 169.368 20.9594H172.733L175.39 13.6777H173.501Z" fill="#E84E0E"/>
<path d="M119.616 24.2657C113.968 24.8757 109.442 27.4539 108.851 32.2755C108.556 34.6765 109.737 37.9631 116.074 37.9631C116.074 37.9631 120.836 38.1599 123.788 36.1328L123.08 38.0024H131.759L137.722 21.6876L138.037 20.8413C138.864 18.6371 138.824 13.6974 128.354 13.4809C123.946 13.3825 116.723 14.2484 112.453 21.6876H121.112C121.112 21.6876 122.332 18.4994 126.327 18.4994C126.327 18.4994 128.807 18.3813 129.004 20.0147C129.004 20.0147 129.279 22.4157 125.638 23.3013C123.513 23.813 119.597 24.2657 119.597 24.2657M126.308 29.2448C126.308 29.2448 125.146 32.8659 120.108 32.8659C119.36 32.8659 118.298 32.4133 118.455 31.0553C118.652 29.54 119.636 28.9495 120.876 28.674L126.937 27.5326L126.308 29.2448Z" fill="#E84E0E"/>
</g>
<defs>
<clipPath id="clip0_9_1753">
<rect width="175.39" height="38.0025" fill="white"/>
</clipPath>
</defs>
</svg>
