<svg width="176" height="38" viewBox="0 0 176 38" fill="none" xmlns="http://www.w3.org/2000/svg">
<g clip-path="url(#clip0_9_1777)">
<path d="M145.39 13L157.39 7H147.963L145.39 13Z" fill="white"/>
<path d="M54.9827 13.6384L57.5215 7.14392H46.3234H36.4243L25.0098 37.6876H46.9532L49.5116 31.1341H36.9753L39.1401 25.6827H50.3185L52.6408 19.6212H41.4427L43.7847 13.6384H54.9827Z" fill="white"/>
<path d="M52.9359 31.1341L50.3381 37.7073C56.1241 38.337 61.0638 37.6679 61.0638 37.6679C64.4882 37.3333 70.2348 36.2313 73.3443 28.7725L81.9839 7.14392H72.0848L64.5276 25.8598C64.5276 25.8598 63.3074 29.9336 58.9974 30.9963C57.4624 31.3899 54.6284 31.2325 52.9359 31.1341Z" fill="white"/>
<path d="M2.98768 31.1341L0.389893 37.7073C6.17587 38.337 11.0959 37.6679 11.0959 37.6679C14.5203 37.3333 20.2866 36.2313 23.3764 28.7725L32.0357 7.14392H22.1365L14.5793 25.8598C14.5793 25.8598 13.3788 29.9336 9.04918 30.9963C7.51412 31.3899 4.68018 31.2325 2.98768 31.1341Z" fill="white"/>
<path d="M103.121 7.14392L95.8586 26.7454C94.1268 31.1341 92.5524 31.3506 90.171 31.3506C87.3568 31.3506 88.0653 29.048 88.4392 27.69L96.1735 7.14392H86.3925L78.4023 28.615C75.6077 36.2706 81.9644 37.8647 85.0936 37.8647H90.2301C93.0444 37.8647 101.861 37.0972 104.557 29.8942L112.98 7.14392H103.101H103.121Z" fill="white"/>
<path d="M135.967 37.9828H144.862L153.895 13.6777H145.039L135.967 37.9828Z" fill="white"/>
<path d="M173.89 13.6777C169.128 13.6777 166.333 16.4133 164.897 18.1648L166.687 13.6777H157.831L148.759 37.9828H157.654L161.964 26.4699C164.188 21.3137 168.911 20.9594 169.758 20.9594H173.123L175.78 13.6777H173.89Z" fill="white"/>
<path d="M120.006 24.2657C114.358 24.8757 109.832 27.4539 109.241 32.2755C108.946 34.6765 110.127 37.9631 116.464 37.9631C116.464 37.9631 121.226 38.1599 124.178 36.1328L123.47 38.0024H132.149L138.112 21.6876L138.427 20.8413C139.253 18.6371 139.214 13.6974 128.744 13.4809C124.336 13.3825 117.113 14.2484 112.843 21.6876H121.502C121.502 21.6876 122.722 18.4994 126.717 18.4994C126.717 18.4994 129.197 18.3813 129.394 20.0147C129.394 20.0147 129.669 22.4157 126.028 23.3013C123.903 23.813 119.986 24.2657 119.986 24.2657M126.697 29.2448C126.697 29.2448 125.536 32.8659 120.498 32.8659C119.75 32.8659 118.688 32.4133 118.845 31.0553C119.042 29.54 120.026 28.9495 121.266 28.674L127.327 27.5326L126.697 29.2448Z" fill="white"/>
</g>
<defs>
<clipPath id="clip0_9_1777">
<rect width="175.39" height="38.0025" fill="white" transform="translate(0.389893)"/>
</clipPath>
</defs>
</svg>
